<?xml version="1.0" encoding="UTF-8"?>
<svg width="26px" height="32px" viewBox="0 0 26 32" version="1.1" xmlns="http://www.w3.org/2000/svg" xmlns:xlink="http://www.w3.org/1999/xlink">
    <!-- Generator: Sketch 50.2 (55047) - http://www.bohemiancoding.com/sketch -->
    <title>icon/文件格式/CSS</title>
    <desc>Created with Sketch.</desc>
    <defs></defs>
    <g id="icon/文件格式/CSS" stroke="none" stroke-width="1" fill="none" fill-rule="evenodd">
        <g id="Group-5">
            <path d="M0,0 L29.0038998,0 C30.6586002,0 32,1.33425951 32,2.99610022 L32,29.0038998 C32,30.6586002 30.6657405,32 29.0038998,32 L0,32 L0,0 Z" id="Rectangle-1205-Copy-4"></path>
        </g>
        <g id="css" fill-rule="nonzero">
            <path d="M17.6051136,0 L1.11534091,0 C0.65625,0 0.284090909,0.374285714 0.284090909,1.10057143 L0.284090909,31.4285714 C0.284090909,31.6257143 0.65625,32 1.11534091,32 L23.8846591,32 C24.34375,32 24.7159091,31.6257143 24.7159091,31.4285714 L24.7159091,7.416 C24.7159091,7.01828571 24.6630682,6.89028571 24.5698864,6.796 L17.9585227,0.146857143 C17.8647727,0.0531428571 17.7375,0 17.6051136,0 Z" id="Shape" fill="#E9E9E0"></path>
            <polygon id="Shape" fill="#D9D7CA" points="17.8977273 0.0862857143 17.8977273 6.85714286 24.6301136 6.85714286"></polygon>
            <path d="M23.8846591,32 L1.11534091,32 C0.65625,32 0.284090909,31.6257143 0.284090909,31.164 L0.284090909,22.2857143 L24.7159091,22.2857143 L24.7159091,31.164 C24.7159091,31.6257143 24.34375,32 23.8846591,32 Z" id="Shape" fill="#0096E6"></path>
            <g id="Group" transform="translate(5.681818, 24.000000)" fill="#FFFFFF">
                <path d="M4.30681818,5.7 C4.09431818,5.908 3.85340909,6.06457143 3.58465909,6.16857143 C3.31590909,6.27257143 3.02556818,6.32457143 2.71477273,6.32457143 C2.37272727,6.32457143 2.05852273,6.26228571 1.77102273,6.13714286 C1.48352273,6.012 1.23238636,5.82742857 1.01761364,5.58228571 C0.802840909,5.33714286 0.634090909,5.03028571 0.5125,4.66057143 C0.390909091,4.29085714 0.330113636,3.86342857 0.330113636,3.37942857 C0.330113636,2.89542857 0.390909091,2.46914286 0.5125,2.10228571 C0.634090909,1.73485714 0.802840909,1.42914286 1.01761364,1.18457143 C1.23238636,0.94 1.48465909,0.753714286 1.775,0.625714286 C2.06534091,0.497714286 2.37840909,0.434285714 2.71477273,0.434285714 C3.02556818,0.434285714 3.31590909,0.486285714 3.58465909,0.590285714 C3.85340909,0.694285714 4.09431818,0.850857143 4.30681818,1.05885714 L3.66193182,1.63714286 C3.53238636,1.48571429 3.38920455,1.37657143 3.23068182,1.30914286 C3.07215909,1.24171429 2.90852273,1.20742857 2.7375,1.20742857 C2.54602273,1.20742857 2.36363636,1.24342857 2.18977273,1.31657143 C2.01590909,1.38971429 1.86079545,1.51314286 1.72386364,1.68742857 C1.58693182,1.86171429 1.47897727,2.08685714 1.40170455,2.36342857 C1.32443182,2.64 1.28238636,2.97771429 1.27727273,3.37885714 C1.28238636,3.76971429 1.32272727,4.10285714 1.39772727,4.37885714 C1.47272727,4.65485714 1.57613636,4.88 1.70852273,5.05485714 C1.84090909,5.22971429 1.99090909,5.35657143 2.15909091,5.43771429 C2.32727273,5.51885714 2.50454545,5.55885714 2.69147727,5.55885714 C2.87840909,5.55885714 3.05284091,5.52457143 3.21590909,5.45714286 C3.37897727,5.38971429 3.52784091,5.28 3.6625,5.12914286 L4.30681818,5.7 Z" id="Shape"></path>
                <path d="M8.88238636,4.70742857 C8.88238636,4.91542857 8.83977273,5.11771429 8.75397727,5.31314286 C8.66818182,5.50857143 8.54829545,5.68057143 8.39261364,5.82857143 C8.23693182,5.97657143 8.04602273,6.09542857 7.81761364,6.184 C7.58920455,6.27257143 7.33125,6.31657143 7.04090909,6.31657143 C6.91647727,6.31657143 6.78863636,6.30971429 6.65625,6.29714286 C6.52386364,6.28457143 6.39090909,6.26171429 6.25625,6.23085714 C6.12159091,6.2 5.99318182,6.15657143 5.87159091,6.10171429 C5.75,6.04685714 5.64545455,5.98057143 5.55681818,5.90228571 L5.71988636,5.23028571 C5.79261364,5.272 5.88409091,5.31257143 5.99545455,5.35142857 C6.10681818,5.39028571 6.22159091,5.42685714 6.34090909,5.46057143 C6.46022727,5.49428571 6.57897727,5.52171429 6.69829545,5.54285714 C6.81761364,5.564 6.92840909,5.57428571 7.03238636,5.57428571 C7.34829545,5.57428571 7.59034091,5.5 7.75852273,5.35142857 C7.92670455,5.20285714 8.01079545,4.98285714 8.01079545,4.69142857 C8.01079545,4.51428571 7.95170455,4.36342857 7.83238636,4.23828571 C7.71306818,4.11314286 7.56420455,4 7.38579545,3.89828571 C7.20738636,3.79657143 7.01420455,3.69542857 6.80681818,3.59371429 C6.59943182,3.492 6.40568182,3.372 6.22443182,3.23428571 C6.04318182,3.09657143 5.89318182,2.93371429 5.77386364,2.74628571 C5.65454545,2.55885714 5.59545455,2.32457143 5.59545455,2.04342857 C5.59545455,1.78857143 5.64204545,1.56171429 5.73522727,1.364 C5.82840909,1.16628571 5.95397727,0.997714286 6.11193182,0.86 C6.26988636,0.722285714 6.45397727,0.616571429 6.66363636,0.543428571 C6.87329545,0.470285714 7.09488636,0.434285714 7.32784091,0.434285714 C7.56590909,0.434285714 7.80681818,0.456571429 8.05,0.500571429 C8.29318182,0.544571429 8.48977273,0.616571429 8.64034091,0.715428571 C8.60909091,0.782857143 8.57329545,0.857142857 8.53181818,0.938285714 C8.49034091,1.01942857 8.45113636,1.09428571 8.41534091,1.16457143 C8.37954545,1.23485714 8.34829545,1.29371429 8.32215909,1.34057143 C8.29602273,1.38742857 8.28068182,1.41371429 8.27556818,1.41885714 C8.24431818,1.40342857 8.20965909,1.38285714 8.17045455,1.35657143 C8.13125,1.33028571 8.07613636,1.30457143 8.00340909,1.27828571 C7.93068182,1.252 7.83522727,1.23428571 7.71590909,1.22342857 C7.59659091,1.21257143 7.44375,1.21542857 7.25738636,1.23142857 C7.15340909,1.24228571 7.05568182,1.27142857 6.96193182,1.32114286 C6.86818182,1.37085714 6.78579545,1.43142857 6.71306818,1.50457143 C6.64034091,1.57771429 6.58352273,1.65942857 6.54204545,1.75085714 C6.50056818,1.84228571 6.48011364,1.92971429 6.48011364,2.01257143 C6.48011364,2.22057143 6.53920455,2.38857143 6.65852273,2.51657143 C6.77784091,2.64457143 6.92556818,2.756 7.10113636,2.85257143 C7.27670455,2.94914286 7.46875,3.04285714 7.67613636,3.13371429 C7.88352273,3.22457143 8.07613636,3.336 8.25511364,3.46571429 C8.43409091,3.59542857 8.58238636,3.75885714 8.70170455,3.95371429 C8.82102273,4.14857143 8.88238636,4.4 8.88238636,4.70742857 Z" id="Shape"></path>
                <path d="M13.0926136,4.70742857 C13.0926136,4.91542857 13.05,5.11771429 12.9642045,5.31314286 C12.8784091,5.50857143 12.7585227,5.68057143 12.6028409,5.82857143 C12.4471591,5.97657143 12.25625,6.09542857 12.0278409,6.184 C11.7994318,6.27257143 11.5414773,6.31657143 11.2511364,6.31657143 C11.1267045,6.31657143 10.9988636,6.30971429 10.8664773,6.29714286 C10.7340909,6.28457143 10.6011364,6.26171429 10.4664773,6.23085714 C10.3318182,6.2 10.2034091,6.15657143 10.0818182,6.10171429 C9.96022727,6.04685714 9.85568182,5.98057143 9.76704545,5.90228571 L9.93011364,5.23028571 C10.0028409,5.272 10.0943182,5.31257143 10.2056818,5.35142857 C10.3170455,5.39028571 10.4318182,5.42685714 10.5511364,5.46057143 C10.6704545,5.49428571 10.7892045,5.52171429 10.9085227,5.54285714 C11.0278409,5.564 11.1386364,5.57428571 11.2426136,5.57428571 C11.5585227,5.57428571 11.8005682,5.5 11.96875,5.35142857 C12.1369318,5.20285714 12.2210227,4.98285714 12.2210227,4.69142857 C12.2210227,4.51428571 12.1619318,4.36342857 12.0426136,4.23828571 C11.9232955,4.11314286 11.7744318,4 11.5960227,3.89828571 C11.4176136,3.79657143 11.2244318,3.69542857 11.0170455,3.59371429 C10.8096591,3.492 10.6159091,3.372 10.4346591,3.23428571 C10.2534091,3.09657143 10.1034091,2.93371429 9.98409091,2.74628571 C9.86477273,2.55885714 9.80568182,2.32457143 9.80568182,2.04342857 C9.80568182,1.78857143 9.85227273,1.56171429 9.94545455,1.364 C10.0386364,1.16628571 10.1642045,0.997714286 10.3221591,0.86 C10.4801136,0.722285714 10.6642045,0.616571429 10.8738636,0.543428571 C11.0835227,0.470285714 11.3051136,0.434285714 11.5380682,0.434285714 C11.7761364,0.434285714 12.0170455,0.456571429 12.2602273,0.500571429 C12.5034091,0.544571429 12.7,0.616571429 12.8505682,0.715428571 C12.8193182,0.782857143 12.7835227,0.857142857 12.7420455,0.938285714 C12.7005682,1.01942857 12.6613636,1.09428571 12.6255682,1.16457143 C12.5897727,1.23485714 12.5585227,1.29371429 12.5323864,1.34057143 C12.50625,1.38742857 12.4909091,1.41371429 12.4857955,1.41885714 C12.4545455,1.40342857 12.4198864,1.38285714 12.3806818,1.35657143 C12.3414773,1.33028571 12.2863636,1.30457143 12.2136364,1.27828571 C12.1409091,1.252 12.0454545,1.23428571 11.9261364,1.22342857 C11.8068182,1.21257143 11.6539773,1.21542857 11.4676136,1.23142857 C11.3636364,1.24228571 11.2659091,1.27142857 11.1721591,1.32114286 C11.0784091,1.37085714 10.9960227,1.43142857 10.9232955,1.50457143 C10.8505682,1.57771429 10.79375,1.65942857 10.7522727,1.75085714 C10.7107955,1.84228571 10.6903409,1.92971429 10.6903409,2.01257143 C10.6903409,2.22057143 10.7494318,2.38857143 10.86875,2.51657143 C10.9880682,2.64457143 11.1357955,2.756 11.3113636,2.85257143 C11.4869318,2.94914286 11.6789773,3.04285714 11.8863636,3.13371429 C12.09375,3.22457143 12.2863636,3.336 12.4653409,3.46571429 C12.6443182,3.59542857 12.7926136,3.75885714 12.9119318,3.95371429 C13.03125,4.14857143 13.0926136,4.4 13.0926136,4.70742857 Z" id="Shape"></path>
            </g>
            <g id="Group" transform="translate(4.545455, 6.857143)" fill="#0096E6">
                <path d="M3.125,4 L3.125,1.71428571 C3.125,1.39942857 3.37954545,1.14285714 3.69318182,1.14285714 C4.00738636,1.14285714 4.26136364,0.886857143 4.26136364,0.571428571 C4.26136364,0.256 4.00738636,0 3.69318182,0 C2.75340909,0 1.98863636,0.769142857 1.98863636,1.71428571 L1.98863636,4 C1.98863636,4.63028571 1.47897727,5.14285714 0.852272727,5.14285714 C0.538068182,5.14285714 0.284090909,5.39885714 0.284090909,5.71428571 C0.284090909,6.02971429 0.538068182,6.28571429 0.852272727,6.28571429 C1.47897727,6.28571429 1.98863636,6.79828571 1.98863636,7.42857143 L1.98863636,9.71428571 C1.98863636,10.6594286 2.75340909,11.4285714 3.69318182,11.4285714 C4.00738636,11.4285714 4.26136364,11.1725714 4.26136364,10.8571429 C4.26136364,10.5417143 4.00738636,10.2857143 3.69318182,10.2857143 C3.37954545,10.2857143 3.125,10.0291429 3.125,9.71428571 L3.125,7.42857143 C3.125,6.74285714 2.81704545,6.13371429 2.33977273,5.71428571 C2.81704545,5.29485714 3.125,4.68571429 3.125,4 Z" id="Shape"></path>
                <path d="M14.4886364,5.14285714 C13.8619318,5.14285714 13.3522727,4.63028571 13.3522727,4 L13.3522727,1.71428571 C13.3522727,0.769142857 12.5875,0 11.6477273,0 C11.3335227,0 11.0795455,0.256 11.0795455,0.571428571 C11.0795455,0.886857143 11.3335227,1.14285714 11.6477273,1.14285714 C11.9613636,1.14285714 12.2159091,1.39942857 12.2159091,1.71428571 L12.2159091,4 C12.2159091,4.68571429 12.5238636,5.29485714 13.0011364,5.71428571 C12.5238636,6.13371429 12.2159091,6.74285714 12.2159091,7.42857143 L12.2159091,9.71428571 C12.2159091,10.0291429 11.9613636,10.2857143 11.6477273,10.2857143 C11.3335227,10.2857143 11.0795455,10.5417143 11.0795455,10.8571429 C11.0795455,11.1725714 11.3335227,11.4285714 11.6477273,11.4285714 C12.5875,11.4285714 13.3522727,10.6594286 13.3522727,9.71428571 L13.3522727,7.42857143 C13.3522727,6.79828571 13.8619318,6.28571429 14.4886364,6.28571429 C14.8028409,6.28571429 15.0568182,6.02971429 15.0568182,5.71428571 C15.0568182,5.39885714 14.8028409,5.14285714 14.4886364,5.14285714 Z" id="Shape"></path>
            </g>
        </g>
    </g>
</svg>