<?xml version="1.0" encoding="UTF-8"?>
<svg width="30px" height="30px" viewBox="0 0 30 30" version="1.1" xmlns="http://www.w3.org/2000/svg" xmlns:xlink="http://www.w3.org/1999/xlink">
    <!-- Generator: Sketch 50.2 (55047) - http://www.bohemiancoding.com/sketch -->
    <title>icon/文件格式/csv</title>
    <desc>Created with Sketch.</desc>
    <defs></defs>
    <g id="icon/文件格式/csv" stroke="none" stroke-width="1" fill="none" fill-rule="evenodd">
        <g id="Shape">
            <path d="M4.390625,1.66533454e-15 C3.078125,1.66533454e-15 2,1.078125 2,2.390625 L2,27.609375 C2,28.921875 3.078125,30 4.390625,30 L25.859375,30 C27.171875,30 28.25,28.921875 28.25,27.609375 L28.25,9.515625 L19.34375,0 L4.390625,0 L4.390625,1.66533454e-15 Z" fill="#45B058"></path>
            <path d="M11.515625,20.25 C11.5625,20.296875 11.609375,20.390625 11.609375,20.484375 C11.609375,20.671875 11.46875,20.8125 11.28125,20.8125 C11.1875,20.8125 11.09375,20.8125 11.046875,20.71875 C10.71875,20.34375 10.15625,20.0625 9.640625,20.0625 C8.421875,20.0625 7.484375,21 7.484375,22.359375 C7.484375,23.671875 8.421875,24.65625 9.640625,24.65625 C10.15625,24.65625 10.671875,24.421875 11.046875,24 C11.09375,23.953125 11.1875,23.90625 11.28125,23.90625 C11.46875,23.90625 11.609375,24.046875 11.609375,24.234375 C11.609375,24.328125 11.5625,24.421875 11.515625,24.46875 C11.09375,24.9375 10.484375,25.265625 9.640625,25.265625 C8,25.265625 6.734375,24.09375 6.734375,22.359375 C6.734375,20.625 8,19.453125 9.640625,19.453125 C10.484375,19.453125 11.09375,19.78125 11.515625,20.25 Z M14.703125,25.265625 C13.859375,25.265625 13.203125,24.984375 12.734375,24.5625 C12.640625,24.515625 12.640625,24.421875 12.640625,24.328125 C12.640625,24.140625 12.734375,23.953125 12.96875,23.953125 C13.015625,23.953125 13.109375,24 13.15625,24.046875 C13.53125,24.375 14.09375,24.65625 14.75,24.65625 C15.734375,24.65625 16.0625,24.09375 16.0625,23.671875 C16.0625,22.21875 12.734375,23.015625 12.734375,21 C12.734375,20.109375 13.53125,19.453125 14.65625,19.453125 C15.359375,19.453125 16.015625,19.6875 16.484375,20.0625 C16.53125,20.109375 16.578125,20.203125 16.578125,20.296875 C16.578125,20.484375 16.4375,20.625 16.25,20.625 C16.203125,20.625 16.109375,20.625 16.0625,20.578125 C15.640625,20.25 15.125,20.0625 14.609375,20.0625 C13.90625,20.0625 13.4375,20.4375 13.4375,20.953125 C13.4375,22.21875 16.765625,21.515625 16.765625,23.625 C16.765625,24.421875 16.203125,25.265625 14.703125,25.265625 Z M22.671875,20.015625 L20.703125,24.84375 C20.609375,25.078125 20.421875,25.21875 20.1875,25.21875 L20.140625,25.21875 C19.90625,25.21875 19.671875,25.078125 19.578125,24.84375 L17.65625,20.015625 C17.609375,19.96875 17.609375,19.921875 17.609375,19.875 C17.609375,19.6875 17.75,19.5 17.984375,19.5 C18.125,19.5 18.265625,19.59375 18.3125,19.734375 L20.140625,24.421875 L21.96875,19.734375 C22.015625,19.59375 22.15625,19.5 22.296875,19.5 C22.53125,19.5 22.71875,19.6875 22.71875,19.875 C22.71875,19.921875 22.671875,19.96875 22.671875,20.015625 L22.671875,20.015625 Z" fill="#FFFFFF"></path>
            <path d="M28.25,9.5625 L28.25,10.03125 L22.25,10.03125 C22.25,10.03125 19.296875,9.421875 19.390625,6.84375 C19.390625,6.84375 19.484375,9.5625 22.203125,9.5625 L28.25,9.5625 Z" fill="#349C42"></path>
            <path d="M19.390625,0 L19.390625,6.84375 C19.390625,7.59375 19.90625,9.5625 22.25,9.5625 L28.25,9.5625 L19.390625,0 Z" fill="#FFFFFF" opacity="0.5"></path>
        </g>
    </g>
</svg>