<?xml version="1.0" encoding="UTF-8"?>
<svg width="26px" height="32px" viewBox="0 0 26 32" version="1.1" xmlns="http://www.w3.org/2000/svg" xmlns:xlink="http://www.w3.org/1999/xlink">
    <!-- Generator: Sketch 50.2 (55047) - http://www.bohemiancoding.com/sketch -->
    <title>icon/文件格式/DOC</title>
    <desc>Created with Sketch.</desc>
    <defs></defs>
    <g id="icon/文件格式/DOC" stroke="none" stroke-width="1" fill="none" fill-rule="evenodd">
        <g id="Group-5">
            <path d="M0,0 L29.0038998,0 C30.6586002,0 32,1.33425951 32,2.99610022 L32,29.0038998 C32,30.6586002 30.6657405,32 29.0038998,32 L0,32 L0,0 Z" id="Rectangle-1205-Copy-4"></path>
        </g>
        <g id="doc" fill-rule="nonzero">
            <path d="M17.6051136,0 L1.11534091,0 C0.65625,0 0.284090909,0.372159091 0.284090909,1.09431818 L0.284090909,31.25 C0.284090909,31.4460227 0.65625,31.8181818 1.11534091,31.8181818 L23.8846591,31.8181818 C24.34375,31.8181818 24.7159091,31.4460227 24.7159091,31.25 L24.7159091,7.37386364 C24.7159091,6.97840909 24.6630682,6.85113636 24.5698864,6.75738636 L17.9585227,0.146022727 C17.8647727,0.0528409091 17.7375,0 17.6051136,0 Z" id="Shape" fill="#E9E9E0"></path>
            <polygon id="Shape" fill="#D9D7CA" points="17.8977273 0.0857954545 17.8977273 6.81818182 24.6301136 6.81818182"></polygon>
            <path d="M7.10227273,7.38636364 L3.69318182,7.38636364 C3.37954545,7.38636364 3.125,7.13181818 3.125,6.81818182 C3.125,6.50454545 3.37954545,6.25 3.69318182,6.25 L7.10227273,6.25 C7.41590909,6.25 7.67045455,6.50454545 7.67045455,6.81818182 C7.67045455,7.13181818 7.41590909,7.38636364 7.10227273,7.38636364 Z" id="Shape" fill="#8697CB"></path>
            <path d="M8.80681818,10.2272727 L3.69318182,10.2272727 C3.37954545,10.2272727 3.125,9.97272727 3.125,9.65909091 C3.125,9.34545455 3.37954545,9.09090909 3.69318182,9.09090909 L8.80681818,9.09090909 C9.12045455,9.09090909 9.375,9.34545455 9.375,9.65909091 C9.375,9.97272727 9.12045455,10.2272727 8.80681818,10.2272727 Z" id="Shape" fill="#8697CB"></path>
            <path d="M11.0795455,10.2272727 C10.9318182,10.2272727 10.7840909,10.1647727 10.6761364,10.0625 C10.5738636,9.95454545 10.5113636,9.80681818 10.5113636,9.65909091 C10.5113636,9.51136364 10.5738636,9.36363636 10.6761364,9.25568182 C10.8863636,9.04545455 11.2727273,9.04545455 11.4829545,9.25568182 C11.5852273,9.36363636 11.6477273,9.51136364 11.6477273,9.65909091 C11.6477273,9.80681818 11.5852273,9.95454545 11.4829545,10.0625 C11.375,10.1647727 11.2272727,10.2272727 11.0795455,10.2272727 Z" id="Shape" fill="#8697CB"></path>
            <path d="M17.8977273,10.2272727 L13.3522727,10.2272727 C13.0386364,10.2272727 12.7840909,9.97272727 12.7840909,9.65909091 C12.7840909,9.34545455 13.0386364,9.09090909 13.3522727,9.09090909 L17.8977273,9.09090909 C18.2113636,9.09090909 18.4659091,9.34545455 18.4659091,9.65909091 C18.4659091,9.97272727 18.2113636,10.2272727 17.8977273,10.2272727 Z" id="Shape" fill="#8697CB"></path>
            <path d="M3.69318182,18.75 C3.54545455,18.75 3.39772727,18.6875 3.28977273,18.5852273 C3.1875,18.4772727 3.125,18.3295455 3.125,18.1818182 C3.125,18.0340909 3.1875,17.8863636 3.28977273,17.7784091 C3.5,17.5681818 3.88636364,17.5681818 4.09659091,17.7784091 C4.19886364,17.8863636 4.26136364,18.0284091 4.26136364,18.1818182 C4.26136364,18.3295455 4.19886364,18.4772727 4.09659091,18.5852273 C3.98863636,18.6875 3.84090909,18.75 3.69318182,18.75 Z" id="Shape" fill="#8697CB"></path>
            <path d="M10.5113636,18.75 L5.96590909,18.75 C5.65227273,18.75 5.39772727,18.4954545 5.39772727,18.1818182 C5.39772727,17.8681818 5.65227273,17.6136364 5.96590909,17.6136364 L10.5113636,17.6136364 C10.825,17.6136364 11.0795455,17.8681818 11.0795455,18.1818182 C11.0795455,18.4954545 10.825,18.75 10.5113636,18.75 Z" id="Shape" fill="#8697CB"></path>
            <path d="M21.3068182,10.2272727 L20.1704545,10.2272727 C19.8568182,10.2272727 19.6022727,9.97272727 19.6022727,9.65909091 C19.6022727,9.34545455 19.8568182,9.09090909 20.1704545,9.09090909 L21.3068182,9.09090909 C21.6204545,9.09090909 21.875,9.34545455 21.875,9.65909091 C21.875,9.97272727 21.6204545,10.2272727 21.3068182,10.2272727 Z" id="Shape" fill="#8697CB"></path>
            <path d="M16.1931818,13.0681818 L3.69318182,13.0681818 C3.37954545,13.0681818 3.125,12.8136364 3.125,12.5 C3.125,12.1863636 3.37954545,11.9318182 3.69318182,11.9318182 L16.1931818,11.9318182 C16.5068182,11.9318182 16.7613636,12.1863636 16.7613636,12.5 C16.7613636,12.8136364 16.5068182,13.0681818 16.1931818,13.0681818 Z" id="Shape" fill="#8697CB"></path>
            <path d="M21.3068182,13.0681818 L17.8977273,13.0681818 C17.5840909,13.0681818 17.3295455,12.8136364 17.3295455,12.5 C17.3295455,12.1863636 17.5840909,11.9318182 17.8977273,11.9318182 L21.3068182,11.9318182 C21.6204545,11.9318182 21.875,12.1863636 21.875,12.5 C21.875,12.8136364 21.6204545,13.0681818 21.3068182,13.0681818 Z" id="Shape" fill="#8697CB"></path>
            <path d="M5.96590909,15.9090909 L3.69318182,15.9090909 C3.37954545,15.9090909 3.125,15.6545455 3.125,15.3409091 C3.125,15.0272727 3.37954545,14.7727273 3.69318182,14.7727273 L5.96590909,14.7727273 C6.27954545,14.7727273 6.53409091,15.0272727 6.53409091,15.3409091 C6.53409091,15.6545455 6.27954545,15.9090909 5.96590909,15.9090909 Z" id="Shape" fill="#8697CB"></path>
            <path d="M13.9204545,15.9090909 L8.23863636,15.9090909 C7.925,15.9090909 7.67045455,15.6545455 7.67045455,15.3409091 C7.67045455,15.0272727 7.925,14.7727273 8.23863636,14.7727273 L13.9204545,14.7727273 C14.2340909,14.7727273 14.4886364,15.0272727 14.4886364,15.3409091 C14.4886364,15.6545455 14.2340909,15.9090909 13.9204545,15.9090909 Z" id="Shape" fill="#8697CB"></path>
            <path d="M21.3068182,15.9090909 L16.1931818,15.9090909 C15.8795455,15.9090909 15.625,15.6545455 15.625,15.3409091 C15.625,15.0272727 15.8795455,14.7727273 16.1931818,14.7727273 L21.3068182,14.7727273 C21.6204545,14.7727273 21.875,15.0272727 21.875,15.3409091 C21.875,15.6545455 21.6204545,15.9090909 21.3068182,15.9090909 Z" id="Shape" fill="#8697CB"></path>
            <path d="M23.8846591,31.8181818 L1.11534091,31.8181818 C0.65625,31.8181818 0.284090909,31.4460227 0.284090909,30.9869318 L0.284090909,22.1590909 L24.7159091,22.1590909 L24.7159091,30.9869318 C24.7159091,31.4460227 24.34375,31.8181818 23.8846591,31.8181818 Z" id="Shape" fill="#0096E6"></path>
            <g id="Group" transform="translate(5.113636, 23.863636)" fill="#FFFFFF">
                <path d="M4.82954545,3.22840909 C4.82954545,3.69943182 4.77897727,4.10227273 4.67784091,4.43636364 C4.57670455,4.77045455 4.44886364,5.05 4.29318182,5.27556818 C4.1375,5.50113636 3.96306818,5.67840909 3.76875,5.80795455 C3.57443182,5.9375 3.38693182,6.03409091 3.20568182,6.09943182 C3.02443182,6.16420455 2.85852273,6.20568182 2.70852273,6.22386364 C2.55852273,6.24090909 2.44715909,6.25 2.375,6.25 L0.207954545,6.25 L0.207954545,0.525 L1.93181818,0.525 C2.41363636,0.525 2.83693182,0.601704545 3.20170455,0.753977273 C3.56647727,0.90625 3.86988636,1.11022727 4.11079545,1.36363636 C4.35170455,1.61704545 4.53125,1.90625 4.65056818,2.22954545 C4.76988636,2.55340909 4.82954545,2.88636364 4.82954545,3.22840909 Z M2.06420455,5.56647727 C2.69602273,5.56647727 3.15170455,5.36477273 3.43125,4.96079545 C3.71079545,4.55681818 3.85056818,3.97159091 3.85056818,3.20511364 C3.85056818,2.96704545 3.82215909,2.73125 3.76534091,2.49829545 C3.70795455,2.26534091 3.59829545,2.05454545 3.43522727,1.86534091 C3.27215909,1.67613636 3.05056818,1.52329545 2.77102273,1.40681818 C2.49147727,1.29034091 2.12897727,1.23181818 1.68352273,1.23181818 L1.13977273,1.23181818 L1.13977273,5.56647727 L2.06420455,5.56647727 Z" id="Shape"></path>
                <path d="M10.4971591,3.36022727 C10.4971591,3.84204545 10.4363636,4.26647727 10.3147727,4.63409091 C10.1931818,5.00170455 10.0244318,5.30738636 9.80965909,5.55056818 C9.59488636,5.79431818 9.34375,5.97784091 9.05625,6.10227273 C8.76875,6.22670455 8.45397727,6.28863636 8.1125,6.28863636 C7.77102273,6.28863636 7.45625,6.22670455 7.16875,6.10227273 C6.88125,5.97784091 6.63011364,5.79431818 6.41534091,5.55056818 C6.20056818,5.30681818 6.03181818,5.00170455 5.91022727,4.63409091 C5.78863636,4.26647727 5.72784091,3.84147727 5.72784091,3.36022727 C5.72784091,2.87897727 5.78863636,2.45511364 5.91022727,2.09034091 C6.03181818,1.725 6.2,1.42102273 6.41534091,1.17784091 C6.63011364,0.934090909 6.88125,0.749431818 7.16875,0.622159091 C7.45625,0.494886364 7.77102273,0.431818182 8.1125,0.431818182 C8.45397727,0.431818182 8.76875,0.494886364 9.05625,0.622159091 C9.34375,0.749431818 9.59488636,0.934090909 9.80965909,1.17784091 C10.0244318,1.42159091 10.1926136,1.72556818 10.3147727,2.09034091 C10.4357955,2.45511364 10.4971591,2.87840909 10.4971591,3.36022727 Z M8.08863636,5.52784091 C8.28011364,5.52784091 8.4625,5.49034091 8.63636364,5.41534091 C8.80965909,5.34034091 8.96534091,5.21704545 9.10227273,5.04659091 C9.23920455,4.87556818 9.34715909,4.65170455 9.42443182,4.37443182 C9.50170455,4.09715909 9.54318182,3.75965909 9.54886364,3.36079545 C9.54375,2.97215909 9.50340909,2.64204545 9.42840909,2.37045455 C9.35340909,2.09829545 9.25,1.87443182 9.11761364,1.69829545 C8.98522727,1.52215909 8.83522727,1.39545455 8.66704545,1.31761364 C8.49886364,1.23977273 8.32159091,1.20113636 8.13465909,1.20113636 C7.94318182,1.20113636 7.76022727,1.23693182 7.58693182,1.30965909 C7.41306818,1.38238636 7.25795455,1.50511364 7.12102273,1.67840909 C6.98352273,1.85227273 6.87613636,2.07556818 6.79886364,2.35056818 C6.72159091,2.62556818 6.67954545,2.96136364 6.67443182,3.36022727 C6.67954545,3.74886364 6.71988636,4.08011364 6.79488636,4.35454545 C6.86988636,4.62897727 6.97329545,4.85284091 7.10568182,5.02670455 C7.23806818,5.20056818 7.38806818,5.32670455 7.55625,5.40738636 C7.725,5.4875 7.90227273,5.52784091 8.08863636,5.52784091 Z" id="Shape"></path>
                <path d="M15.6857955,5.66761364 C15.4732955,5.87443182 15.2323864,6.03011364 14.9636364,6.13352273 C14.6943182,6.2375 14.4045455,6.28863636 14.09375,6.28863636 C13.7517045,6.28863636 13.4375,6.22670455 13.15,6.10227273 C12.8625,5.97784091 12.6113636,5.79431818 12.3965909,5.55056818 C12.1818182,5.30681818 12.0130682,5.00170455 11.8914773,4.63409091 C11.7698864,4.26647727 11.7090909,3.84147727 11.7090909,3.36022727 C11.7090909,2.87897727 11.7698864,2.45511364 11.8914773,2.09034091 C12.0130682,1.725 12.18125,1.42102273 12.3965909,1.17784091 C12.6113636,0.934090909 12.8636364,0.749431818 13.1539773,0.622159091 C13.44375,0.494886364 13.7573864,0.431818182 14.09375,0.431818182 C14.4045455,0.431818182 14.6943182,0.483522727 14.9636364,0.586931818 C15.2329545,0.690909091 15.4732955,0.846022727 15.6857955,1.05284091 L15.0409091,1.62784091 C14.9113636,1.47727273 14.7676136,1.36875 14.6096591,1.30170455 C14.4517045,1.23465909 14.2875,1.20056818 14.1164773,1.20056818 C13.925,1.20056818 13.7420455,1.23636364 13.56875,1.30909091 C13.3948864,1.38181818 13.2397727,1.50454545 13.1028409,1.67784091 C12.9653409,1.85170455 12.8579545,2.075 12.7806818,2.35 C12.7034091,2.625 12.6613636,2.96079545 12.65625,3.35965909 C12.6613636,3.74829545 12.7017045,4.07954545 12.7767045,4.35397727 C12.8517045,4.62840909 12.9551136,4.85227273 13.0875,5.02613636 C13.2198864,5.2 13.3698864,5.32613636 13.5380682,5.40681818 C13.70625,5.4875 13.8835227,5.52727273 14.0704545,5.52727273 C14.2573864,5.52727273 14.4318182,5.49318182 14.5948864,5.42613636 C14.7579545,5.35909091 14.9068182,5.25 15.0414773,5.1 L15.6857955,5.66761364 Z" id="Shape"></path>
            </g>
        </g>
    </g>
</svg>