<?xml version="1.0" encoding="UTF-8"?>
<svg width="30px" height="30px" viewBox="0 0 30 30" version="1.1" xmlns="http://www.w3.org/2000/svg" xmlns:xlink="http://www.w3.org/1999/xlink">
    <!-- Generator: Sketch 50.2 (55047) - http://www.bohemiancoding.com/sketch -->
    <title>icon/文件格式/excel</title>
    <desc>Created with Sketch.</desc>
    <defs></defs>
    <g id="icon/文件格式/excel" stroke="none" stroke-width="1" fill="none" fill-rule="evenodd">
        <g id="Shape">
            <path d="M4.390625,1.66533454e-15 C3.078125,1.66533454e-15 2,1.078125 2,2.390625 L2,27.609375 C2,28.921875 3.078125,30 4.390625,30 L25.859375,30 C27.171875,30 28.25,28.921875 28.25,27.609375 L28.25,9.515625 L19.390625,0 L4.390625,0 L4.390625,1.66533454e-15 Z" fill="#45B058"></path>
            <path d="M11.09375,25.265625 C11,25.265625 10.90625,25.21875 10.859375,25.171875 L9.125,22.828125 L7.34375,25.171875 C7.296875,25.21875 7.203125,25.265625 7.109375,25.265625 C6.921875,25.265625 6.78125,25.125 6.78125,24.9375 C6.78125,24.890625 6.78125,24.796875 6.828125,24.75 L8.65625,22.359375 L6.96875,20.0625 C6.921875,20.015625 6.875,19.96875 6.875,19.875 C6.875,19.734375 7.015625,19.546875 7.203125,19.546875 C7.34375,19.546875 7.4375,19.59375 7.484375,19.6875 L9.125,21.84375 L10.71875,19.6875 C10.765625,19.59375 10.859375,19.546875 10.953125,19.546875 C11.140625,19.546875 11.328125,19.6875 11.328125,19.875 C11.328125,19.96875 11.28125,20.015625 11.28125,20.0625 L9.546875,22.3125 L11.375,24.75 C11.421875,24.796875 11.46875,24.890625 11.46875,24.9375 C11.46875,25.125 11.28125,25.265625 11.09375,25.265625 L11.09375,25.265625 Z M15.78125,25.21875 L13.25,25.21875 C12.96875,25.21875 12.734375,24.984375 12.734375,24.703125 L12.734375,19.875 C12.734375,19.6875 12.875,19.546875 13.109375,19.546875 C13.296875,19.546875 13.4375,19.6875 13.4375,19.875 L13.4375,24.609375 L15.78125,24.609375 C15.96875,24.609375 16.109375,24.75 16.109375,24.890625 C16.109375,25.078125 15.96875,25.21875 15.78125,25.21875 Z M19.0625,25.3125 C18.21875,25.3125 17.5625,25.03125 17.09375,24.609375 C17,24.5625 17,24.46875 17,24.375 C17,24.1875 17.09375,24 17.328125,24 C17.375,24 17.46875,24.046875 17.515625,24.09375 C17.890625,24.421875 18.453125,24.703125 19.109375,24.703125 C20.09375,24.703125 20.421875,24.140625 20.421875,23.71875 C20.421875,22.265625 17.09375,23.0625 17.09375,21.09375 C17.09375,20.15625 17.890625,19.5 19.015625,19.5 C19.71875,19.5 20.375,19.734375 20.796875,20.109375 C20.890625,20.15625 20.9375,20.25 20.9375,20.34375 C20.9375,20.53125 20.796875,20.71875 20.609375,20.71875 C20.5625,20.71875 20.46875,20.671875 20.421875,20.625 C20,20.296875 19.484375,20.15625 18.96875,20.15625 C18.265625,20.15625 17.796875,20.484375 17.796875,21.046875 C17.796875,22.3125 21.125,21.5625 21.125,23.671875 C21.125,24.46875 20.5625,25.3125 19.0625,25.3125 L19.0625,25.3125 Z" fill="#FFFFFF"></path>
            <path d="M28.25,9.5625 L28.25,10.03125 L22.25,10.03125 C22.25,10.03125 19.25,9.421875 19.34375,6.84375 C19.34375,6.84375 19.4375,9.5625 22.15625,9.5625 L28.25,9.5625 Z" fill="#349C42"></path>
            <path d="M19.34375,0 L19.34375,6.84375 C19.34375,7.59375 19.90625,9.5625 22.25,9.5625 L28.25,9.5625 L19.34375,0 Z" fill="#FFFFFF" opacity="0.5"></path>
        </g>
    </g>
</svg>