<?xml version="1.0" encoding="UTF-8"?>
<svg width="30px" height="30px" viewBox="0 0 30 30" version="1.1" xmlns="http://www.w3.org/2000/svg" xmlns:xlink="http://www.w3.org/1999/xlink">
    <!-- Generator: Sketch 50.2 (55047) - http://www.bohemiancoding.com/sketch -->
    <title>icon/文件格式/exe</title>
    <desc>Created with Sketch.</desc>
    <defs></defs>
    <g id="icon/文件格式/exe" stroke="none" stroke-width="1" fill="none" fill-rule="evenodd">
        <g id="Shape">
            <path d="M4.390625,1.66533454e-15 C3.078125,1.66533454e-15 2,1.078125 2,2.390625 L2,27.609375 C2,28.921875 3.078125,30 4.390625,30 L25.859375,30 C27.171875,30 28.25,28.921875 28.25,27.609375 L28.25,9.515625 L19.390625,0 L4.390625,0 L4.390625,1.66533454e-15 Z" fill="#8199AF"></path>
            <path d="M28.25,9.5625 L28.25,10.03125 L22.25,10.03125 C22.25,10.03125 19.296875,9.421875 19.34375,6.890625 C19.34375,6.890625 19.4375,9.5625 22.15625,9.5625 L28.25,9.5625 Z" fill="#617F9B"></path>
            <path d="M19.390625,0 L19.390625,6.84375 C19.390625,7.59375 19.90625,9.5625 22.25,9.5625 L28.25,9.5625 L19.390625,0 Z" fill="#FFFFFF" opacity="0.5"></path>
            <path d="M10.203125,25.265625 L7.25,25.265625 C6.96875,25.265625 6.734375,25.03125 6.734375,24.75 L6.734375,20.15625 C6.734375,19.875 6.96875,19.640625 7.25,19.640625 L10.203125,19.640625 C10.34375,19.640625 10.484375,19.78125 10.484375,19.96875 C10.484375,20.15625 10.34375,20.25 10.203125,20.25 L7.4375,20.25 L7.4375,22.078125 L10.109375,22.078125 C10.296875,22.078125 10.4375,22.21875 10.4375,22.40625 C10.4375,22.59375 10.296875,22.6875 10.109375,22.6875 L7.4375,22.6875 L7.4375,24.65625 L10.203125,24.65625 C10.34375,24.65625 10.484375,24.796875 10.484375,24.9375 C10.484375,25.125 10.34375,25.265625 10.203125,25.265625 L10.203125,25.265625 Z M15.875,25.3125 C15.734375,25.3125 15.640625,25.3125 15.59375,25.21875 L13.859375,22.875 L12.078125,25.21875 C12.03125,25.3125 11.9375,25.3125 11.84375,25.3125 C11.65625,25.3125 11.515625,25.171875 11.515625,24.984375 C11.515625,24.9375 11.515625,24.84375 11.5625,24.796875 L13.390625,22.40625 L11.703125,20.109375 C11.65625,20.0625 11.609375,20.015625 11.609375,19.921875 C11.609375,19.78125 11.75,19.59375 11.984375,19.59375 C12.078125,19.59375 12.171875,19.640625 12.21875,19.734375 L13.859375,21.890625 L15.453125,19.734375 C15.5,19.640625 15.59375,19.59375 15.734375,19.59375 C15.875,19.59375 16.0625,19.734375 16.0625,19.921875 C16.0625,20.015625 16.0625,20.0625 16.015625,20.109375 L14.328125,22.359375 L16.109375,24.796875 C16.15625,24.84375 16.203125,24.9375 16.203125,24.984375 C16.203125,25.171875 16.015625,25.3125 15.875,25.3125 Z M20.890625,25.265625 L17.984375,25.265625 C17.703125,25.265625 17.46875,25.03125 17.46875,24.75 L17.46875,20.15625 C17.46875,19.875 17.703125,19.640625 17.984375,19.640625 L20.890625,19.640625 C21.078125,19.640625 21.21875,19.78125 21.21875,19.96875 C21.21875,20.15625 21.078125,20.25 20.890625,20.25 L18.171875,20.25 L18.171875,22.078125 L20.84375,22.078125 C21.03125,22.078125 21.171875,22.21875 21.171875,22.40625 C21.171875,22.59375 21.03125,22.6875 20.84375,22.6875 L18.171875,22.6875 L18.171875,24.65625 L20.890625,24.65625 C21.078125,24.65625 21.21875,24.796875 21.21875,24.9375 C21.21875,25.125 21.078125,25.265625 20.890625,25.265625 L20.890625,25.265625 Z" fill="#FFFFFF"></path>
        </g>
    </g>
</svg>