<?xml version="1.0" encoding="UTF-8"?>
<svg width="30px" height="30px" viewBox="0 0 30 30" version="1.1" xmlns="http://www.w3.org/2000/svg" xmlns:xlink="http://www.w3.org/1999/xlink">
    <!-- Generator: Sketch 50.2 (55047) - http://www.bohemiancoding.com/sketch -->
    <title>icon/文件格式/flash</title>
    <desc>Created with Sketch.</desc>
    <defs></defs>
    <g id="icon/文件格式/flash" stroke="none" stroke-width="1" fill="none" fill-rule="evenodd">
        <g id="Shape">
            <path d="M4.390625,1.66533454e-15 C3.078125,1.66533454e-15 2,1.078125 2,2.390625 L2,27.609375 C2,28.921875 3.078125,30 4.390625,30 L25.859375,30 C27.171875,30 28.25,28.921875 28.25,27.609375 L28.25,9.515625 L19.390625,0 L4.390625,0 L4.390625,1.66533454e-15 Z" fill="#E53C3C"></path>
            <path d="M28.25,9.515625 L28.25,9.984375 L22.25,9.984375 C22.25,9.984375 19.296875,9.421875 19.34375,6.84375 C19.34375,6.84375 19.4375,9.515625 22.15625,9.515625 L28.25,9.515625 Z" fill="#DE2D2D"></path>
            <path d="M19.390625,0 L19.390625,6.84375 C19.390625,7.59375 19.90625,9.515625 22.25,9.515625 L28.25,9.515625 L19.390625,0 Z" fill="#FFFFFF" opacity="0.5"></path>
            <path d="M10.203125,20.203125 L7.4375,20.203125 L7.4375,22.03125 L10.109375,22.03125 C10.296875,22.03125 10.4375,22.171875 10.4375,22.359375 C10.4375,22.5 10.296875,22.640625 10.109375,22.640625 L7.4375,22.640625 L7.4375,24.9375 C7.4375,25.125 7.296875,25.265625 7.109375,25.265625 C6.921875,25.265625 6.734375,25.125 6.734375,24.9375 L6.734375,20.109375 C6.734375,19.828125 6.96875,19.59375 7.25,19.59375 L10.203125,19.59375 C10.34375,19.59375 10.484375,19.734375 10.484375,19.921875 C10.484375,20.0625 10.34375,20.203125 10.203125,20.203125 L10.203125,20.203125 Z M14.65625,25.21875 L12.125,25.21875 C11.84375,25.21875 11.609375,24.984375 11.609375,24.703125 L11.609375,19.875 C11.609375,19.6875 11.75,19.546875 11.984375,19.546875 C12.171875,19.546875 12.3125,19.6875 12.3125,19.875 L12.3125,24.609375 L14.65625,24.609375 C14.84375,24.609375 14.984375,24.703125 14.984375,24.890625 C14.984375,25.078125 14.84375,25.21875 14.65625,25.21875 Z M20.375,25.265625 C20.234375,25.265625 20.140625,25.171875 20.046875,25.03125 L19.625,23.953125 L16.8125,23.953125 L16.390625,25.03125 C16.34375,25.171875 16.203125,25.265625 16.0625,25.265625 C15.875,25.265625 15.6875,25.078125 15.6875,24.890625 C15.6875,24.84375 15.6875,24.796875 15.734375,24.75 L17.65625,19.921875 C17.75,19.6875 17.984375,19.546875 18.21875,19.546875 C18.5,19.546875 18.6875,19.6875 18.78125,19.921875 L20.75,24.75 C20.75,24.796875 20.796875,24.84375 20.796875,24.890625 C20.796875,25.078125 20.609375,25.265625 20.375,25.265625 L20.375,25.265625 Z M18.21875,20.296875 L17.046875,23.34375 L19.4375,23.34375 L18.21875,20.296875 Z" fill="#FFFFFF"></path>
        </g>
    </g>
</svg>