<?xml version="1.0" encoding="UTF-8"?>
<svg width="30px" height="30px" viewBox="0 0 30 30" version="1.1" xmlns="http://www.w3.org/2000/svg" xmlns:xlink="http://www.w3.org/1999/xlink">
    <!-- Generator: Sketch 50.2 (55047) - http://www.bohemiancoding.com/sketch -->
    <title>icon/文件格式/html</title>
    <desc>Created with Sketch.</desc>
    <defs></defs>
    <g id="icon/文件格式/html" stroke="none" stroke-width="1" fill="none" fill-rule="evenodd">
        <g id="Shape">
            <path d="M4.390625,1.66533454e-15 C3.078125,1.66533454e-15 2.046875,1.078125 2.046875,2.390625 L2.046875,27.609375 C2.046875,28.921875 3.078125,30 4.390625,30 L25.859375,30 C27.171875,30 28.25,28.921875 28.25,27.609375 L28.25,9.515625 L19.390625,0 L4.390625,0 L4.390625,1.66533454e-15 Z" fill="#F7622C"></path>
            <path d="M28.25,9.5625 L28.25,10.03125 L22.25,10.03125 C22.25,10.03125 19.296875,9.421875 19.34375,6.84375 C19.34375,6.84375 19.484375,9.5625 22.203125,9.5625 L28.25,9.5625 Z" fill="#F54921"></path>
            <path d="M19.390625,0 L19.390625,6.84375 C19.390625,7.59375 19.90625,9.5625 22.25,9.5625 L28.25,9.5625 L19.390625,0 Z" fill="#FFFFFF" opacity="0.5"></path>
            <path d="M10.859375,23.8125 L10.71875,23.8125 L7.15625,22.21875 C6.921875,22.125 6.78125,21.890625 6.78125,21.609375 C6.78125,21.375 6.921875,21.140625 7.15625,21.046875 L10.71875,19.453125 C10.765625,19.453125 10.8125,19.40625 10.859375,19.40625 C11.09375,19.40625 11.28125,19.59375 11.28125,19.828125 C11.28125,20.015625 11.1875,20.15625 11.046875,20.25 L7.765625,21.65625 L11.046875,23.015625 C11.1875,23.109375 11.28125,23.25 11.28125,23.4375 C11.28125,23.671875 11.09375,23.8125 10.859375,23.8125 L10.859375,23.8125 Z M14.84375,18.65625 L12.78125,24.890625 C12.6875,25.078125 12.546875,25.171875 12.359375,25.171875 C12.078125,25.171875 11.890625,24.984375 11.890625,24.75 C11.890625,24.703125 11.9375,24.65625 11.9375,24.609375 L14,18.421875 C14.09375,18.234375 14.234375,18.09375 14.421875,18.09375 C14.703125,18.09375 14.84375,18.28125 14.84375,18.515625 L14.84375,18.65625 L14.84375,18.65625 Z M19.625,22.21875 L16.0625,23.8125 L15.921875,23.8125 C15.6875,23.8125 15.5,23.671875 15.5,23.4375 C15.5,23.25 15.59375,23.109375 15.734375,23.015625 L19.0625,21.65625 L15.734375,20.25 C15.59375,20.15625 15.5,20.015625 15.5,19.828125 C15.5,19.59375 15.6875,19.40625 15.921875,19.40625 C15.96875,19.40625 16.015625,19.453125 16.0625,19.453125 L19.625,21.046875 C19.859375,21.140625 20,21.375 20,21.609375 C20,21.890625 19.859375,22.125 19.625,22.21875 L19.625,22.21875 Z" fill="#FFFFFF"></path>
        </g>
    </g>
</svg>