<?xml version="1.0" encoding="UTF-8"?>
<svg width="30px" height="30px" viewBox="0 0 30 30" version="1.1" xmlns="http://www.w3.org/2000/svg" xmlns:xlink="http://www.w3.org/1999/xlink">
    <!-- Generator: Sketch 50.2 (55047) - http://www.bohemiancoding.com/sketch -->
    <title>icon/文件格式/image</title>
    <desc>Created with Sketch.</desc>
    <defs></defs>
    <g id="icon/文件格式/image" stroke="none" stroke-width="1" fill="none" fill-rule="evenodd">
        <g id="Shape">
            <path d="M4.390625,0 C3.078125,0 2.046875,1.078125 2.046875,2.390625 L2.046875,27.65625 C2.046875,28.96875 3.078125,30 4.390625,30 L25.859375,30 C27.171875,30 28.25,28.96875 28.25,27.65625 L28.25,9.5625 L19.390625,0 L4.390625,0 L4.390625,0 Z" fill="#49C9A7"></path>
            <path d="M28.25,9.5625 L28.25,10.03125 L22.25,10.03125 C22.25,10.03125 19.296875,9.421875 19.34375,6.84375 C19.34375,6.84375 19.484375,9.5625 22.203125,9.5625 L28.25,9.5625 Z" fill="#37BB91"></path>
            <path d="M19.390625,0 L19.390625,6.84375 C19.390625,7.59375 19.90625,9.5625 22.25,9.5625 L28.25,9.5625 L19.390625,0 Z" fill="#FFFFFF" opacity="0.5"></path>
            <path d="M6.734375,25.171875 L6.734375,15.375 L16.53125,15.375 L16.53125,25.171875 L6.734375,25.171875 L6.734375,25.171875 Z M15.546875,16.359375 L7.71875,16.359375 L7.71875,22.265625 L15.546875,22.265625 L15.546875,16.359375 Z M11.046875,20.296875 L12.875,17.8125 L13.484375,18.796875 L14.09375,18.609375 L14.5625,21.234375 L8.421875,21.234375 L10.0625,19.6875 L11.046875,20.296875 L11.046875,20.296875 Z M9.265625,18.5625 C8.84375,18.5625 8.46875,18.28125 8.46875,17.859375 C8.46875,17.484375 8.84375,17.15625 9.265625,17.15625 C9.6875,17.15625 10.015625,17.484375 10.015625,17.859375 C10.015625,18.28125 9.6875,18.5625 9.265625,18.5625 L9.265625,18.5625 Z" fill="#FFFFFF"></path>
        </g>
    </g>
</svg>