<?xml version="1.0" encoding="UTF-8"?>
<svg width="26px" height="32px" viewBox="0 0 26 32" version="1.1" xmlns="http://www.w3.org/2000/svg" xmlns:xlink="http://www.w3.org/1999/xlink">
    <!-- Generator: Sketch 50.2 (55047) - http://www.bohemiancoding.com/sketch -->
    <title>icon/文件格式/JPG</title>
    <desc>Created with Sketch.</desc>
    <defs></defs>
    <g id="icon/文件格式/JPG" stroke="none" stroke-width="1" fill="none" fill-rule="evenodd">
        <g id="Group-5">
            <path d="M0,0 L29.0038998,0 C30.6586002,0 32,1.33425951 32,2.99610022 L32,29.0038998 C32,30.6586002 30.6657405,32 29.0038998,32 L0,32 L0,0 Z" id="Rectangle-1205-Copy-4"></path>
        </g>
        <g id="jpg" fill-rule="nonzero">
            <path d="M17.7057143,0 L1.12171429,0 C0.66,0 0.285714286,0.374285714 0.285714286,1.10057143 L0.285714286,31.4285714 C0.285714286,31.6257143 0.66,32 1.12171429,32 L24.0211429,32 C24.4828571,32 24.8571429,31.6257143 24.8571429,31.4285714 L24.8571429,7.416 C24.8571429,7.01828571 24.804,6.89028571 24.7102857,6.796 L18.0611429,0.146857143 C17.9668571,0.0531428571 17.8388571,0 17.7057143,0 Z" id="Shape" fill="#E9E9E0"></path>
            <polygon id="Shape" fill="#D9D7CA" points="18 0.0862857143 18 6.85714286 24.7708571 6.85714286"></polygon>
            <circle id="Oval" fill="#F3D55B" cx="7.38914286" cy="8.24628571" r="2.61085714"></circle>
            <polygon id="Shape" fill="#26B99A" points="0.285714286 22.2857143 6.57142857 22.2857143 24.8571429 22.2857143 24.8571429 16 19.1428571 10.5714286 13.1428571 17.1428571 10.0097143 14.0097143"></polygon>
            <path d="M24.0211429,32 L1.12171429,32 C0.66,32 0.285714286,31.6257143 0.285714286,31.164 L0.285714286,22.2857143 L24.8571429,22.2857143 L24.8571429,31.164 C24.8571429,31.6257143 24.4828571,32 24.0211429,32 Z" id="Shape" fill="#14A085"></path>
            <g id="Group" transform="translate(5.142857, 24.000000)" fill="#FFFFFF">
                <path d="M3.672,0.371428571 L3.672,4.856 C3.672,5.12685714 3.62228571,5.35485714 3.52342857,5.53942857 C3.42457143,5.724 3.29142857,5.87257143 3.12514286,5.98457143 C2.95828571,6.09657143 2.76685714,6.17485714 2.55085714,6.21885714 C2.33428571,6.26342857 2.112,6.28571429 1.88285714,6.28571429 C1.768,6.28571429 1.63371429,6.27371429 1.48057143,6.25028571 C1.32685714,6.22685714 1.168,6.19085714 1.004,6.14114286 C0.84,6.09142857 0.682285714,6.03542857 0.531428571,5.97314286 C0.38,5.91085714 0.252571429,5.84057143 0.148571429,5.76228571 L0.546857143,5.12971429 C0.598857143,5.16571429 0.673142857,5.204 0.769714286,5.24285714 C0.865714286,5.28171429 0.971428571,5.31828571 1.08628571,5.352 C1.20057143,5.38628571 1.32057143,5.41542857 1.44571429,5.44171429 C1.57085714,5.468 1.688,5.48057143 1.79714286,5.48057143 C2.07314286,5.48057143 2.29314286,5.42685714 2.45714286,5.32057143 C2.62114286,5.21428571 2.708,5.03257143 2.71885714,4.77771429 L2.71885714,0.371428571 L3.672,0.371428571 Z" id="Shape"></path>
                <path d="M6.008,6.24685714 L5.07028571,6.24685714 L5.07028571,0.488571429 L6.72628571,0.488571429 C6.97085714,0.488571429 7.21314286,0.527428571 7.45257143,0.605714286 C7.692,0.684 7.90685714,0.801142857 8.09714286,0.957142857 C8.28742857,1.11314286 8.44114286,1.30228571 8.55828571,1.52342857 C8.67542857,1.74457143 8.73428571,1.99314286 8.73428571,2.26971429 C8.73428571,2.56171429 8.68457143,2.82571429 8.58571429,3.06285714 C8.48685714,3.3 8.34857143,3.49942857 8.17142857,3.66057143 C7.99428571,3.82171429 7.78057143,3.94685714 7.53085714,4.03542857 C7.28114286,4.124 7.00457143,4.168 6.70285714,4.168 L6.00742857,4.168 L6.00742857,6.24685714 L6.008,6.24685714 Z M6.008,1.2 L6.008,3.48114286 L6.86742857,3.48114286 C6.98171429,3.48114286 7.09485714,3.46171429 7.20742857,3.42228571 C7.31942857,3.38342857 7.42228571,3.31942857 7.516,3.23085714 C7.60971429,3.14228571 7.68514286,3.01885714 7.74228571,2.86 C7.79942857,2.70114286 7.828,2.50457143 7.828,2.27028571 C7.828,2.17657143 7.81485714,2.068 7.78914286,1.94628571 C7.76285714,1.824 7.70971429,1.70685714 7.62914286,1.59485714 C7.548,1.48285714 7.43485714,1.38914286 7.28914286,1.31371429 C7.14285714,1.23771429 6.95028571,1.2 6.71085714,1.2 L6.008,1.2 Z" id="Shape"></path>
                <path d="M14,3.27771429 L14,5.504 C13.88,5.65542857 13.7462857,5.77828571 13.5977143,5.87485714 C13.4491429,5.97142857 13.2931429,6.05085714 13.1291429,6.11314286 C12.9651429,6.17542857 12.796,6.22 12.6211429,6.24571429 C12.4462857,6.27314286 12.2737143,6.28571429 12.1017143,6.28571429 C11.7577143,6.28571429 11.4417143,6.22342857 11.1525714,6.09828571 C10.8634286,5.97314286 10.6108571,5.78857143 10.3948571,5.54342857 C10.1788571,5.29828571 10.0091429,4.99142857 9.88685714,4.62171429 C9.76457143,4.252 9.70342857,3.82457143 9.70342857,3.34057143 C9.70342857,2.85657143 9.76457143,2.43028571 9.88685714,2.06342857 C10.0091429,1.696 10.1782857,1.39028571 10.3948571,1.14571429 C10.6108571,0.900571429 10.8645714,0.714857143 11.1565714,0.586857143 C11.448,0.458857143 11.7634286,0.395428571 12.1017143,0.395428571 C12.4142857,0.395428571 12.7057143,0.447428571 12.9765714,0.551428571 C13.2474286,0.656 13.4891429,0.812 13.7028571,1.02 L13.0542857,1.59828571 C12.9291429,1.44685714 12.7857143,1.33771429 12.6245714,1.27028571 C12.4628571,1.20285714 12.2965714,1.16857143 12.1245714,1.16857143 C11.932,1.16857143 11.748,1.20457143 11.5737143,1.27771429 C11.3988571,1.35085714 11.2428571,1.47428571 11.1051429,1.64857143 C10.9668571,1.82342857 10.8588571,2.048 10.7811429,2.32457143 C10.7034286,2.60114286 10.6611429,2.93885714 10.656,3.34 C10.6611429,3.73085714 10.7017143,4.06914286 10.7771429,4.35542857 C10.8525714,4.64171429 10.9565714,4.876 11.0897143,5.05828571 C11.2228571,5.24057143 11.3737143,5.376 11.5428571,5.46457143 C11.712,5.55314286 11.8902857,5.59714286 12.0782857,5.59714286 C12.1354286,5.59714286 12.212,5.59314286 12.3085714,5.58514286 C12.4045714,5.57714286 12.5011429,5.56457143 12.5977143,5.54628571 C12.6937143,5.528 12.7862857,5.50342857 12.8748571,5.472 C12.9634286,5.44057143 13.0285714,5.39657143 13.0702857,5.33942857 L13.0702857,3.91771429 L12.0937143,3.91771429 L12.0937143,3.27714286 L14,3.27714286 L14,3.27771429 Z" id="Shape"></path>
            </g>
        </g>
    </g>
</svg>