<?xml version="1.0" encoding="UTF-8"?>
<svg width="26px" height="32px" viewBox="0 0 26 32" version="1.1" xmlns="http://www.w3.org/2000/svg" xmlns:xlink="http://www.w3.org/1999/xlink">
    <!-- Generator: Sketch 50.2 (55047) - http://www.bohemiancoding.com/sketch -->
    <title>icon/文件格式/JS</title>
    <desc>Created with Sketch.</desc>
    <defs></defs>
    <g id="icon/文件格式/JS" stroke="none" stroke-width="1" fill="none" fill-rule="evenodd">
        <g id="Group-5">
            <path d="M0,0 L29.0038998,0 C30.6586002,0 32,1.33425951 32,2.99610022 L32,29.0038998 C32,30.6586002 30.6657405,32 29.0038998,32 L0,32 L0,0 Z" id="Rectangle-1205-Copy-4"></path>
        </g>
        <g id="javascript" transform="translate(-0.142857, 0.000000)" fill-rule="nonzero">
            <path d="M17.7057143,0 L1.12171429,0 C0.66,0 0.285714286,0.374285714 0.285714286,1.10057143 L0.285714286,31.4285714 C0.285714286,31.6257143 0.66,32 1.12171429,32 L24.0211429,32 C24.4828571,32 24.8571429,31.6257143 24.8571429,31.4285714 L24.8571429,7.416 C24.8571429,7.01828571 24.804,6.89028571 24.7102857,6.796 L18.0611429,0.146857143 C17.9668571,0.0531428571 17.8388571,0 17.7057143,0 Z" id="Shape" fill="#E9E9E0"></path>
            <polygon id="Shape" fill="#D9D7CA" points="18 0.0862857143 18 6.85714286 24.7708571 6.85714286"></polygon>
            <path d="M24.0211429,32 L1.12171429,32 C0.66,32 0.285714286,31.6257143 0.285714286,31.164 L0.285714286,22.2857143 L24.8571429,22.2857143 L24.8571429,31.164 C24.8571429,31.6257143 24.4828571,32 24.0211429,32 Z" id="Shape" fill="#EEAF4B"></path>
            <g id="Group" transform="translate(7.428571, 24.000000)" fill="#FFFFFF">
                <path d="M4.012,0.410857143 L4.012,4.89542857 C4.012,5.16628571 3.96228571,5.39428571 3.86342857,5.57885714 C3.764,5.76342857 3.63142857,5.912 3.46514286,6.024 C3.29828571,6.136 3.10685714,6.21428571 2.89085714,6.25828571 C2.67485714,6.30228571 2.45142857,6.32457143 2.22285714,6.32457143 C2.108,6.32457143 1.97371429,6.31257143 1.82057143,6.28914286 C1.66742857,6.26571429 1.508,6.22971429 1.344,6.18 C1.18,6.13028571 1.02228571,6.07428571 0.871428571,6.012 C0.72,5.94971429 0.592571429,5.87942857 0.488571429,5.80114286 L0.886857143,5.16857143 C0.938857143,5.20457143 1.01314286,5.24285714 1.10971429,5.28171429 C1.20628571,5.32057143 1.31142857,5.35714286 1.42628571,5.39085714 C1.54057143,5.42514286 1.66057143,5.45428571 1.78571429,5.48057143 C1.91085714,5.50685714 2.028,5.51942857 2.13714286,5.51942857 C2.41257143,5.51942857 2.63314286,5.46571429 2.79714286,5.35942857 C2.96114286,5.25314286 3.048,5.07142857 3.05885714,4.81657143 L3.05885714,0.410285714 L4.012,0.410285714 L4.012,0.410857143 Z" id="Shape"></path>
                <path d="M8.67657143,4.70742857 C8.67657143,4.91542857 8.63371429,5.11771429 8.54742857,5.31314286 C8.46114286,5.50857143 8.34057143,5.68057143 8.184,5.82857143 C8.02742857,5.97657143 7.83485714,6.09542857 7.60571429,6.184 C7.37657143,6.27257143 7.116,6.31657143 6.82457143,6.31657143 C6.69942857,6.31657143 6.57085714,6.30971429 6.43771429,6.29714286 C6.30457143,6.28457143 6.17028571,6.26171429 6.03542857,6.23085714 C5.9,6.19942857 5.77085714,6.15657143 5.64857143,6.10171429 C5.52628571,6.04685714 5.42057143,5.98057143 5.332,5.90228571 L5.496,5.23028571 C5.56857143,5.272 5.66114286,5.31257143 5.77314286,5.35142857 C5.88514286,5.39028571 6.00057143,5.42685714 6.12057143,5.46057143 C6.24,5.49485714 6.36,5.52171429 6.48,5.54285714 C6.59942857,5.56342857 6.71142857,5.57428571 6.816,5.57428571 C7.13371429,5.57428571 7.37714286,5.5 7.54628571,5.35142857 C7.71542857,5.20285714 7.8,4.98285714 7.8,4.69142857 C7.8,4.51428571 7.74,4.36342857 7.62057143,4.23828571 C7.50057143,4.11314286 7.35085714,4 7.17142857,3.89828571 C6.992,3.79657143 6.79771429,3.69542857 6.58914286,3.59371429 C6.38057143,3.492 6.18514286,3.372 6.00342857,3.23428571 C5.82114286,3.09657143 5.66971429,2.93371429 5.55028571,2.74628571 C5.43028571,2.55885714 5.37085714,2.32457143 5.37085714,2.04342857 C5.37085714,1.78857143 5.41771429,1.56171429 5.51142857,1.364 C5.60514286,1.16628571 5.73142857,0.997714286 5.89028571,0.86 C6.04914286,0.722285714 6.23428571,0.616571429 6.44514286,0.543428571 C6.656,0.470285714 6.87885714,0.434285714 7.11314286,0.434285714 C7.35257143,0.434285714 7.59485714,0.456571429 7.83942857,0.500571429 C8.084,0.544571429 8.28171429,0.616571429 8.43314286,0.715428571 C8.40171429,0.782857143 8.36514286,0.857142857 8.324,0.938285714 C8.28228571,1.01942857 8.24285714,1.09428571 8.20685714,1.16457143 C8.17028571,1.23485714 8.13885714,1.29371429 8.11314286,1.34057143 C8.08685714,1.38742857 8.07142857,1.41371429 8.06628571,1.41885714 C8.03485714,1.40342857 8,1.38285714 7.96057143,1.35657143 C7.92114286,1.33028571 7.86514286,1.30457143 7.79257143,1.27828571 C7.71942857,1.252 7.62285714,1.23428571 7.50342857,1.22342857 C7.38342857,1.21257143 7.22971429,1.21542857 7.04228571,1.23142857 C6.93771429,1.24228571 6.83942857,1.27142857 6.74514286,1.32114286 C6.65085714,1.37085714 6.56742857,1.43142857 6.49485714,1.50457143 C6.42171429,1.57771429 6.364,1.65942857 6.32285714,1.75085714 C6.28114286,1.84171429 6.26057143,1.92971429 6.26057143,2.01257143 C6.26057143,2.22057143 6.32,2.38857143 6.44,2.51657143 C6.55942857,2.64457143 6.708,2.756 6.88514286,2.85257143 C7.06228571,2.94914286 7.25428571,3.04285714 7.46342857,3.13371429 C7.67142857,3.22457143 7.86571429,3.336 8.04571429,3.46571429 C8.22571429,3.59542857 8.37485714,3.75885714 8.49485714,3.95371429 C8.616,4.14914286 8.67657143,4.4 8.67657143,4.70742857 Z" id="Shape"></path>
            </g>
            <g id="Group" transform="translate(4.571429, 6.857143)" fill="#EEAF4B">
                <path d="M3.14285714,4 L3.14285714,1.71428571 C3.14285714,1.39942857 3.39885714,1.14285714 3.71428571,1.14285714 C4.03028571,1.14285714 4.28571429,0.886857143 4.28571429,0.571428571 C4.28571429,0.256 4.03028571,0 3.71428571,0 C2.76914286,0 2,0.769142857 2,1.71428571 L2,4 C2,4.63028571 1.48742857,5.14285714 0.857142857,5.14285714 C0.541142857,5.14285714 0.285714286,5.39885714 0.285714286,5.71428571 C0.285714286,6.02971429 0.541142857,6.28571429 0.857142857,6.28571429 C1.48742857,6.28571429 2,6.79828571 2,7.42857143 L2,9.71428571 C2,10.6594286 2.76914286,11.4285714 3.71428571,11.4285714 C4.03028571,11.4285714 4.28571429,11.1725714 4.28571429,10.8571429 C4.28571429,10.5417143 4.03028571,10.2857143 3.71428571,10.2857143 C3.39885714,10.2857143 3.14285714,10.0291429 3.14285714,9.71428571 L3.14285714,7.42857143 C3.14285714,6.74285714 2.83314286,6.13371429 2.35314286,5.71428571 C2.83314286,5.29485714 3.14285714,4.68571429 3.14285714,4 Z" id="Shape"></path>
                <circle id="Oval" cx="7.71428571" cy="3.71428571" r="1"></circle>
                <path d="M14.5714286,5.14285714 C13.9411429,5.14285714 13.4285714,4.63028571 13.4285714,4 L13.4285714,1.71428571 C13.4285714,0.769142857 12.6594286,0 11.7142857,0 C11.3982857,0 11.1428571,0.256 11.1428571,0.571428571 C11.1428571,0.886857143 11.3982857,1.14285714 11.7142857,1.14285714 C12.0297143,1.14285714 12.2857143,1.39942857 12.2857143,1.71428571 L12.2857143,4 C12.2857143,4.68571429 12.5954286,5.29485714 13.0754286,5.71428571 C12.5954286,6.13371429 12.2857143,6.74285714 12.2857143,7.42857143 L12.2857143,9.71428571 C12.2857143,10.0291429 12.0297143,10.2857143 11.7142857,10.2857143 C11.3982857,10.2857143 11.1428571,10.5417143 11.1428571,10.8571429 C11.1428571,11.1725714 11.3982857,11.4285714 11.7142857,11.4285714 C12.6594286,11.4285714 13.4285714,10.6594286 13.4285714,9.71428571 L13.4285714,7.42857143 C13.4285714,6.79828571 13.9411429,6.28571429 14.5714286,6.28571429 C14.8874286,6.28571429 15.1428571,6.02971429 15.1428571,5.71428571 C15.1428571,5.39885714 14.8874286,5.14285714 14.5714286,5.14285714 Z" id="Shape"></path>
                <path d="M7.71428571,6.85714286 C7.39828571,6.85714286 7.14285714,7.11314286 7.14285714,7.42857143 L7.14285714,9.14285714 C7.14285714,9.45828571 7.39828571,9.71428571 7.71428571,9.71428571 C8.03028571,9.71428571 8.28571429,9.45828571 8.28571429,9.14285714 L8.28571429,7.42857143 C8.28571429,7.11314286 8.03028571,6.85714286 7.71428571,6.85714286 Z" id="Shape"></path>
            </g>
        </g>
    </g>
</svg>