<?xml version="1.0" encoding="UTF-8"?>
<svg width="30px" height="30px" viewBox="0 0 30 30" version="1.1" xmlns="http://www.w3.org/2000/svg" xmlns:xlink="http://www.w3.org/1999/xlink">
    <!-- Generator: Sketch 50.2 (55047) - http://www.bohemiancoding.com/sketch -->
    <title>icon/文件格式/keynote</title>
    <desc>Created with Sketch.</desc>
    <defs></defs>
    <g id="icon/文件格式/keynote" stroke="none" stroke-width="1" fill="none" fill-rule="evenodd">
        <g id="Shape">
            <path d="M4.390625,1.66533454e-15 C3.078125,1.66533454e-15 2.046875,1.078125 2.046875,2.390625 L2.046875,27.609375 C2.046875,28.921875 3.078125,30 4.390625,30 L25.859375,30 C27.171875,30 28.25,28.921875 28.25,27.609375 L28.25,9.515625 L19.390625,0 L4.390625,0 L4.390625,1.66533454e-15 Z" fill="#DB7A2A"></path>
            <path d="M28.25,9.5625 L28.25,10.03125 L22.25,10.03125 C22.25,10.03125 19.296875,9.421875 19.34375,6.84375 C19.34375,6.84375 19.484375,9.5625 22.203125,9.5625 L28.25,9.5625 Z" fill="#D25B1F"></path>
            <path d="M19.390625,0 L19.390625,6.84375 C19.390625,7.59375 19.90625,9.5625 22.25,9.5625 L28.25,9.5625 L19.390625,0 Z" fill="#FFFFFF" opacity="0.5"></path>
            <path d="M10.34375,25.3125 C10.25,25.3125 10.15625,25.265625 10.109375,25.21875 L8.046875,22.734375 L7.4375,23.390625 L7.4375,24.984375 C7.4375,25.171875 7.296875,25.3125 7.109375,25.3125 C6.921875,25.3125 6.734375,25.171875 6.734375,24.984375 L6.734375,19.921875 C6.734375,19.734375 6.921875,19.59375 7.109375,19.59375 C7.296875,19.59375 7.4375,19.734375 7.4375,19.921875 L7.4375,22.546875 L9.875,19.6875 C9.96875,19.640625 10.0625,19.59375 10.109375,19.59375 C10.296875,19.59375 10.484375,19.734375 10.484375,19.921875 C10.484375,19.96875 10.4375,20.0625 10.390625,20.109375 L8.46875,22.3125 L10.625,24.796875 C10.671875,24.84375 10.671875,24.890625 10.671875,24.984375 C10.671875,25.125 10.53125,25.3125 10.34375,25.3125 L10.34375,25.3125 Z M15.453125,25.265625 L12.546875,25.265625 C12.265625,25.265625 12.03125,25.03125 12.03125,24.75 L12.03125,20.15625 C12.03125,19.875 12.265625,19.640625 12.546875,19.640625 L15.453125,19.640625 C15.640625,19.640625 15.78125,19.78125 15.78125,19.96875 C15.78125,20.109375 15.640625,20.25 15.453125,20.25 L12.734375,20.25 L12.734375,22.078125 L15.40625,22.078125 C15.59375,22.078125 15.734375,22.21875 15.734375,22.40625 C15.734375,22.546875 15.59375,22.6875 15.40625,22.6875 L12.734375,22.6875 L12.734375,24.65625 L15.453125,24.65625 C15.640625,24.65625 15.78125,24.75 15.78125,24.9375 C15.78125,25.125 15.640625,25.265625 15.453125,25.265625 L15.453125,25.265625 Z M21.265625,20.109375 L19.390625,22.875 L19.390625,24.984375 C19.390625,25.171875 19.25,25.3125 19.015625,25.3125 C18.828125,25.3125 18.6875,25.171875 18.6875,24.984375 L18.6875,22.875 L16.765625,20.109375 C16.765625,20.0625 16.71875,19.96875 16.71875,19.921875 C16.71875,19.734375 16.859375,19.59375 17.046875,19.59375 C17.1875,19.59375 17.28125,19.640625 17.375,19.734375 L19.015625,22.265625 L20.703125,19.734375 C20.75,19.640625 20.890625,19.59375 20.984375,19.59375 C21.171875,19.59375 21.3125,19.734375 21.3125,19.921875 C21.3125,19.96875 21.3125,20.0625 21.265625,20.109375 L21.265625,20.109375 Z" fill="#FFFFFF"></path>
        </g>
    </g>
</svg>