<?xml version="1.0" encoding="UTF-8"?>
<svg width="30px" height="30px" viewBox="0 0 30 30" version="1.1" xmlns="http://www.w3.org/2000/svg" xmlns:xlink="http://www.w3.org/1999/xlink">
    <!-- Generator: Sketch 50.2 (55047) - http://www.bohemiancoding.com/sketch -->
    <title>icon/文件格式/pages</title>
    <desc>Created with Sketch.</desc>
    <defs></defs>
    <g id="icon/文件格式/pages" stroke="none" stroke-width="1" fill="none" fill-rule="evenodd">
        <g id="Shape">
            <path d="M4.390625,1.66533454e-15 C3.078125,1.66533454e-15 2,1.078125 2,2.390625 L2,27.609375 C2,28.921875 3.078125,30 4.390625,30 L25.859375,30 C27.171875,30 28.25,28.921875 28.25,27.609375 L28.25,9.515625 L19.390625,0 L4.390625,0 L4.390625,1.66533454e-15 Z" fill="#6A6AE2"></path>
            <path d="M28.25,9.5625 L28.25,10.03125 L22.25,10.03125 C22.25,10.03125 19.296875,9.421875 19.34375,6.84375 C19.34375,6.84375 19.484375,9.5625 22.203125,9.5625 L28.25,9.5625 Z" fill="#4F4FDA"></path>
            <path d="M19.390625,0 L19.390625,6.84375 C19.390625,7.59375 19.90625,9.5625 22.25,9.5625 L28.25,9.5625 L19.390625,0 Z" fill="#FFFFFF" opacity="0.5"></path>
            <path d="M9.03125,22.96875 L7.4375,22.96875 L7.4375,24.890625 C7.4375,25.125 7.296875,25.265625 7.109375,25.265625 C6.921875,25.265625 6.734375,25.125 6.734375,24.890625 L6.734375,20.0625 C6.734375,19.828125 6.96875,19.59375 7.25,19.59375 L9.03125,19.59375 C10.15625,19.59375 10.765625,20.34375 10.765625,21.28125 C10.765625,22.21875 10.109375,22.96875 9.03125,22.96875 Z M8.9375,20.203125 L7.4375,20.203125 L7.4375,22.359375 L8.9375,22.359375 C9.59375,22.359375 10.0625,21.890625 10.0625,21.28125 C10.0625,20.671875 9.59375,20.203125 8.9375,20.203125 L8.9375,20.203125 Z M14.5625,25.3125 C12.96875,25.3125 11.703125,24.140625 11.703125,22.40625 C11.703125,20.671875 12.96875,19.5 14.5625,19.5 C15.40625,19.5 16.0625,19.828125 16.53125,20.25 C16.578125,20.296875 16.625,20.390625 16.625,20.484375 C16.625,20.671875 16.484375,20.8125 16.296875,20.8125 C16.203125,20.8125 16.109375,20.765625 16.0625,20.71875 C15.6875,20.34375 15.125,20.109375 14.5625,20.109375 C13.34375,20.109375 12.40625,21.046875 12.40625,22.40625 C12.40625,23.71875 13.34375,24.703125 14.5625,24.703125 C15.265625,24.703125 15.828125,24.375 16.109375,24.09375 L16.109375,22.921875 L14.421875,22.921875 C14.234375,22.921875 14.09375,22.78125 14.09375,22.59375 C14.09375,22.453125 14.234375,22.3125 14.421875,22.3125 L16.296875,22.3125 C16.578125,22.3125 16.8125,22.546875 16.8125,22.828125 L16.8125,23.953125 C16.8125,24.796875 15.59375,25.3125 14.5625,25.3125 L14.5625,25.3125 Z M19.953125,25.3125 C19.109375,25.3125 18.453125,25.03125 17.984375,24.609375 C17.890625,24.5625 17.890625,24.46875 17.890625,24.375 C17.890625,24.1875 17.984375,24 18.21875,24 C18.265625,24 18.359375,24 18.40625,24.046875 C18.78125,24.421875 19.34375,24.703125 20,24.703125 C20.984375,24.703125 21.3125,24.140625 21.3125,23.71875 C21.3125,22.265625 17.984375,23.0625 17.984375,21.046875 C17.984375,20.109375 18.828125,19.5 19.90625,19.5 C20.65625,19.5 21.265625,19.734375 21.734375,20.109375 C21.78125,20.15625 21.828125,20.25 21.828125,20.34375 C21.828125,20.53125 21.6875,20.671875 21.5,20.671875 C21.453125,20.671875 21.359375,20.671875 21.3125,20.625 C20.890625,20.25 20.375,20.109375 19.859375,20.109375 C19.203125,20.109375 18.6875,20.484375 18.6875,21 C18.6875,22.265625 22.015625,21.5625 22.015625,23.671875 C22.015625,24.46875 21.5,25.3125 19.953125,25.3125 L19.953125,25.3125 Z" fill="#FFFFFF"></path>
        </g>
    </g>
</svg>