<?xml version="1.0" encoding="UTF-8"?>
<svg width="30px" height="30px" viewBox="0 0 30 30" version="1.1" xmlns="http://www.w3.org/2000/svg" xmlns:xlink="http://www.w3.org/1999/xlink">
    <!-- Generator: Sketch 50.2 (55047) - http://www.bohemiancoding.com/sketch -->
    <title>icon/文件格式/pdf</title>
    <desc>Created with Sketch.</desc>
    <defs></defs>
    <g id="icon/文件格式/pdf" stroke="none" stroke-width="1" fill="none" fill-rule="evenodd">
        <g id="Shape">
            <path d="M4.390625,1.66533454e-15 C3.078125,1.66533454e-15 2,1.078125 2,2.390625 L2,27.609375 C2,28.921875 3.078125,30 4.390625,30 L25.859375,30 C27.171875,30 28.25,28.921875 28.25,27.609375 L28.25,9.515625 L19.390625,0 L4.390625,0 L4.390625,1.66533454e-15 Z" fill="#8C181A"></path>
            <path d="M28.25,9.5625 L28.25,10.03125 L22.25,10.03125 C22.25,10.03125 19.296875,9.421875 19.390625,6.890625 C19.390625,6.890625 19.484375,9.5625 22.203125,9.5625 L28.25,9.5625 Z" fill="#6B0D12"></path>
            <path d="M19.390625,0 L19.390625,6.84375 C19.390625,7.640625 19.90625,9.5625 22.25,9.5625 L28.25,9.5625 L19.390625,0 Z" fill="#FFFFFF" opacity="0.5"></path>
            <path d="M8.984375,22.96875 L7.4375,22.96875 L7.4375,24.890625 C7.4375,25.078125 7.296875,25.21875 7.0625,25.21875 C6.875,25.21875 6.734375,25.078125 6.734375,24.890625 L6.734375,20.109375 C6.734375,19.828125 6.96875,19.59375 7.25,19.59375 L8.984375,19.59375 C10.109375,19.59375 10.765625,20.390625 10.765625,21.28125 C10.765625,22.21875 10.109375,22.96875 8.984375,22.96875 L8.984375,22.96875 Z M8.9375,20.203125 L7.4375,20.203125 L7.4375,22.359375 L8.9375,22.359375 C9.59375,22.359375 10.0625,21.9375 10.0625,21.28125 C10.0625,20.625 9.59375,20.203125 8.9375,20.203125 L8.9375,20.203125 Z M13.8125,25.21875 L12.40625,25.21875 C12.125,25.21875 11.890625,24.984375 11.890625,24.703125 L11.890625,20.109375 C11.890625,19.828125 12.125,19.59375 12.40625,19.59375 L13.8125,19.59375 C15.546875,19.59375 16.71875,20.8125 16.71875,22.40625 C16.71875,24 15.59375,25.21875 13.8125,25.21875 L13.8125,25.21875 Z M13.8125,20.203125 L12.59375,20.203125 L12.59375,24.5625 L13.8125,24.5625 C15.171875,24.5625 15.96875,23.578125 15.96875,22.359375 C16.015625,21.1875 15.21875,20.203125 13.8125,20.203125 L13.8125,20.203125 Z M21.453125,20.203125 L18.734375,20.203125 L18.734375,22.03125 L21.40625,22.03125 C21.59375,22.03125 21.6875,22.171875 21.6875,22.359375 C21.6875,22.546875 21.546875,22.640625 21.40625,22.640625 L18.734375,22.640625 L18.734375,24.890625 C18.734375,25.078125 18.59375,25.21875 18.359375,25.21875 C18.171875,25.21875 18.03125,25.078125 18.03125,24.890625 L18.03125,20.109375 C18.03125,19.828125 18.265625,19.59375 18.546875,19.59375 L21.453125,19.59375 C21.640625,19.59375 21.734375,19.734375 21.734375,19.921875 C21.78125,20.0625 21.640625,20.203125 21.453125,20.203125 L21.453125,20.203125 Z" fill="#FFFFFF"></path>
        </g>
    </g>
</svg>