<?xml version="1.0" encoding="UTF-8"?>
<svg width="30px" height="30px" viewBox="0 0 30 30" version="1.1" xmlns="http://www.w3.org/2000/svg" xmlns:xlink="http://www.w3.org/1999/xlink">
    <!-- Generator: Sketch 50.2 (55047) - http://www.bohemiancoding.com/sketch -->
    <title>icon/文件格式/ppt</title>
    <desc>Created with Sketch.</desc>
    <defs></defs>
    <g id="icon/文件格式/ppt" stroke="none" stroke-width="1" fill="none" fill-rule="evenodd">
        <g id="Shape">
            <path d="M4.390625,1.66533454e-15 C3.078125,1.66533454e-15 2,1.078125 2,2.390625 L2,27.609375 C2,28.921875 3.078125,30 4.390625,30 L25.859375,30 C27.171875,30 28.25,28.921875 28.25,27.609375 L28.25,9.515625 L19.390625,0 L4.390625,0 L4.390625,1.66533454e-15 Z" fill="#E34221"></path>
            <path d="M28.25,9.5625 L28.25,10.03125 L22.25,10.03125 C22.25,10.03125 19.296875,9.421875 19.34375,6.84375 C19.34375,6.84375 19.484375,9.5625 22.203125,9.5625 L28.25,9.5625 Z" fill="#DC3119"></path>
            <path d="M19.390625,0 L19.390625,6.84375 C19.390625,7.59375 19.90625,9.5625 22.25,9.5625 L28.25,9.5625 L19.390625,0 Z" fill="#FFFFFF" opacity="0.5"></path>
            <path d="M9.03125,22.96875 L7.4375,22.96875 L7.4375,24.9375 C7.4375,25.125 7.296875,25.265625 7.109375,25.265625 C6.921875,25.265625 6.734375,25.125 6.734375,24.9375 L6.734375,20.109375 C6.734375,19.828125 6.96875,19.59375 7.25,19.59375 L9.03125,19.59375 C10.15625,19.59375 10.765625,20.34375 10.765625,21.28125 C10.765625,22.21875 10.109375,22.96875 9.03125,22.96875 L9.03125,22.96875 Z M8.9375,20.203125 L7.4375,20.203125 L7.4375,22.359375 L8.9375,22.359375 C9.59375,22.359375 10.0625,21.890625 10.0625,21.28125 C10.0625,20.625 9.59375,20.203125 8.9375,20.203125 L8.9375,20.203125 Z M14.1875,22.96875 L12.59375,22.96875 L12.59375,24.9375 C12.59375,25.125 12.453125,25.265625 12.265625,25.265625 C12.078125,25.265625 11.9375,25.125 11.9375,24.9375 L11.9375,20.109375 C11.9375,19.828125 12.125,19.59375 12.40625,19.59375 L14.1875,19.59375 C15.3125,19.59375 15.921875,20.34375 15.921875,21.28125 C15.921875,22.21875 15.3125,22.96875 14.1875,22.96875 L14.1875,22.96875 Z M14.09375,20.203125 L12.640625,20.203125 L12.640625,22.359375 L14.09375,22.359375 C14.75,22.359375 15.21875,21.890625 15.21875,21.28125 C15.21875,20.625 14.75,20.203125 14.09375,20.203125 L14.09375,20.203125 Z M20.703125,20.203125 L19.15625,20.203125 L19.15625,24.9375 C19.15625,25.125 19.015625,25.265625 18.828125,25.265625 C18.640625,25.265625 18.453125,25.125 18.453125,24.9375 L18.453125,20.203125 L16.953125,20.203125 C16.765625,20.203125 16.625,20.0625 16.625,19.875 C16.625,19.734375 16.765625,19.59375 16.953125,19.59375 L20.703125,19.59375 C20.890625,19.59375 21.03125,19.734375 21.03125,19.921875 C21.03125,20.0625 20.890625,20.203125 20.703125,20.203125 L20.703125,20.203125 Z" fill="#FFFFFF"></path>
        </g>
    </g>
</svg>