<?xml version="1.0" encoding="UTF-8"?>
<svg width="27px" height="30px" viewBox="0 0 27 30" version="1.1" xmlns="http://www.w3.org/2000/svg" xmlns:xlink="http://www.w3.org/1999/xlink">
    <!-- Generator: Sketch 50.2 (55047) - http://www.bohemiancoding.com/sketch -->
    <title>icon/文件格式/psd</title>
    <desc>Created with Sketch.</desc>
    <defs></defs>
    <g id="icon/文件格式/psd" stroke="none" stroke-width="1" fill="none" fill-rule="evenodd">
        <g id="Shape">
            <path d="M2.390625,0.046875 C1.078125,0.046875 0,1.078125 0,2.390625 L0,27.65625 C0,28.96875 1.078125,30 2.390625,30 L23.859375,30 C25.171875,30 26.25,28.96875 26.25,27.65625 L26.25,9.5625 L17.390625,0.046875 L2.390625,0.046875 L2.390625,0.046875 Z" fill="#0C77C6"></path>
            <path d="M26.25,9.5625 L26.25,10.03125 L20.25,10.03125 C20.25,10.03125 17.296875,9.421875 17.34375,6.84375 C17.34375,6.84375 17.484375,9.5625 20.203125,9.5625 L26.25,9.5625 Z" fill="#0959B7"></path>
            <path d="M17.390625,0 L17.390625,6.84375 C17.390625,7.59375 17.90625,9.5625 20.25,9.5625 L26.25,9.5625 L17.390625,0 Z" fill="#FFFFFF" opacity="0.5"></path>
            <path d="M7.03125,22.96875 L5.4375,22.96875 L5.4375,24.9375 C5.4375,25.125 5.296875,25.265625 5.109375,25.265625 C4.921875,25.265625 4.734375,25.125 4.734375,24.9375 L4.734375,20.109375 C4.734375,19.828125 4.96875,19.59375 5.25,19.59375 L7.03125,19.59375 C8.15625,19.59375 8.765625,20.34375 8.765625,21.28125 C8.765625,22.21875 8.109375,22.96875 7.03125,22.96875 L7.03125,22.96875 Z M6.9375,20.203125 L5.4375,20.203125 L5.4375,22.359375 L6.9375,22.359375 C7.59375,22.359375 8.0625,21.890625 8.0625,21.28125 C8.0625,20.625 7.59375,20.203125 6.9375,20.203125 L6.9375,20.203125 Z M11.71875,25.3125 C10.875,25.3125 10.21875,25.03125 9.75,24.609375 C9.703125,24.5625 9.65625,24.46875 9.65625,24.375 C9.65625,24.1875 9.796875,24 9.984375,24 C10.03125,24 10.125,24 10.171875,24.09375 C10.546875,24.421875 11.109375,24.703125 11.765625,24.703125 C12.75,24.703125 13.078125,24.140625 13.078125,23.71875 C13.078125,22.265625 9.75,23.0625 9.75,21.046875 C9.75,20.109375 10.59375,19.5 11.671875,19.5 C12.421875,19.5 13.03125,19.734375 13.5,20.109375 C13.546875,20.15625 13.59375,20.25 13.59375,20.34375 C13.59375,20.53125 13.453125,20.671875 13.265625,20.671875 C13.21875,20.671875 13.125,20.671875 13.078125,20.625 C12.65625,20.25 12.140625,20.109375 11.625,20.109375 C10.96875,20.109375 10.453125,20.484375 10.453125,21 C10.453125,22.265625 13.828125,21.5625 13.828125,23.671875 C13.828125,24.46875 13.265625,25.3125 11.71875,25.3125 L11.71875,25.3125 Z M16.96875,25.21875 L15.5625,25.21875 C15.28125,25.21875 15.046875,24.984375 15.046875,24.703125 L15.046875,20.109375 C15.046875,19.828125 15.28125,19.59375 15.5625,19.59375 L16.96875,19.59375 C18.75,19.59375 19.875,20.8125 19.875,22.40625 C19.875,24 18.75,25.21875 16.96875,25.21875 L16.96875,25.21875 Z M16.96875,20.203125 L15.75,20.203125 L15.75,24.609375 L16.96875,24.609375 C18.375,24.609375 19.171875,23.625 19.171875,22.40625 C19.171875,21.1875 18.375,20.203125 16.96875,20.203125 L16.96875,20.203125 Z" fill="#FFFFFF"></path>
        </g>
    </g>
</svg>