<?xml version="1.0" encoding="UTF-8"?>
<svg width="30px" height="30px" viewBox="0 0 30 30" version="1.1" xmlns="http://www.w3.org/2000/svg" xmlns:xlink="http://www.w3.org/1999/xlink">
    <!-- Generator: Sketch 50.2 (55047) - http://www.bohemiancoding.com/sketch -->
    <title>icon/文件格式/rtf</title>
    <desc>Created with Sketch.</desc>
    <defs></defs>
    <g id="icon/文件格式/rtf" stroke="none" stroke-width="1" fill="none" fill-rule="evenodd">
        <g id="Shape">
            <path d="M4.390625,1.66533454e-15 C3.078125,1.66533454e-15 2,1.078125 2,2.390625 L2,27.609375 C2,28.921875 3.078125,30 4.390625,30 L25.859375,30 C27.171875,30 28.25,28.921875 28.25,27.609375 L28.25,9.515625 L19.390625,0 L4.390625,0 L4.390625,1.66533454e-15 Z" fill="#00A1EE"></path>
            <path d="M28.25,9.5625 L28.25,10.03125 L22.25,10.03125 C22.25,10.03125 19.296875,9.421875 19.34375,6.84375 C19.34375,6.84375 19.484375,9.5625 22.203125,9.5625 L28.25,9.5625 Z" fill="#0089E9"></path>
            <path d="M19.390625,0 L19.390625,6.84375 C19.390625,7.59375 19.90625,9.5625 22.25,9.5625 L28.25,9.5625 L19.390625,0 Z" fill="#FFFFFF" opacity="0.5"></path>
            <path d="M9.3125,22.875 L10.53125,24.703125 C10.578125,24.796875 10.578125,24.84375 10.578125,24.890625 C10.578125,25.078125 10.4375,25.21875 10.25,25.21875 C10.109375,25.21875 10.015625,25.171875 9.96875,25.078125 L8.5625,22.96875 L7.4375,22.96875 L7.4375,24.890625 C7.4375,25.078125 7.296875,25.21875 7.109375,25.21875 C6.921875,25.21875 6.734375,25.078125 6.734375,24.890625 L6.734375,20.0625 C6.734375,19.78125 6.96875,19.546875 7.25,19.546875 L9.03125,19.546875 C10.0625,19.546875 10.765625,20.203125 10.765625,21.234375 C10.765625,22.265625 10.109375,22.828125 9.3125,22.875 Z M7.4375,20.15625 L7.4375,22.3125 L8.9375,22.3125 C9.59375,22.3125 10.0625,21.890625 10.0625,21.234375 C10.0625,20.625 9.59375,20.15625 8.9375,20.15625 L7.4375,20.15625 L7.4375,20.15625 Z M15.640625,20.15625 L14.09375,20.15625 L14.09375,24.890625 C14.09375,25.078125 13.953125,25.21875 13.765625,25.21875 C13.53125,25.21875 13.390625,25.078125 13.390625,24.890625 L13.390625,20.15625 L11.890625,20.15625 C11.703125,20.15625 11.5625,20.0625 11.5625,19.875 C11.5625,19.6875 11.703125,19.546875 11.890625,19.546875 L15.640625,19.546875 C15.828125,19.546875 15.921875,19.6875 15.921875,19.875 C15.921875,20.0625 15.828125,20.15625 15.640625,20.15625 Z M20.46875,20.15625 L17.75,20.15625 L17.75,21.984375 L20.421875,21.984375 C20.5625,21.984375 20.703125,22.125 20.703125,22.3125 C20.703125,22.5 20.5625,22.640625 20.421875,22.640625 L17.75,22.640625 L17.75,24.890625 C17.75,25.078125 17.5625,25.21875 17.375,25.21875 C17.1875,25.21875 17.046875,25.078125 17.046875,24.890625 L17.046875,20.0625 C17.046875,19.78125 17.234375,19.546875 17.515625,19.546875 L20.46875,19.546875 C20.65625,19.546875 20.75,19.6875 20.75,19.875 C20.75,20.0625 20.65625,20.15625 20.46875,20.15625 Z" fill="#FFFFFF"></path>
        </g>
    </g>
</svg>