<?xml version="1.0" encoding="UTF-8"?>
<svg width="30px" height="30px" viewBox="0 0 30 30" version="1.1" xmlns="http://www.w3.org/2000/svg" xmlns:xlink="http://www.w3.org/1999/xlink">
    <!-- Generator: Sketch 50.2 (55047) - http://www.bohemiancoding.com/sketch -->
    <title>icon/文件格式/txt</title>
    <desc>Created with Sketch.</desc>
    <defs></defs>
    <g id="icon/文件格式/txt" stroke="none" stroke-width="1" fill="none" fill-rule="evenodd">
        <g id="Shape">
            <path d="M4.4375,1.66533454e-15 C3.125,1.66533454e-15 2.046875,1.03125 2.046875,2.34375 L2.046875,27.609375 C2.046875,28.921875 3.078125,30 4.4375,30 L25.859375,30 C27.171875,30 28.25,28.921875 28.25,27.609375 L28.25,9.515625 L19.390625,0 L4.4375,0 L4.4375,1.66533454e-15 Z" fill="#F9CA06"></path>
            <path d="M28.25,9.515625 L28.25,9.984375 L22.25,9.984375 C22.25,9.984375 19.296875,9.421875 19.390625,6.84375 C19.390625,6.84375 19.484375,9.515625 22.203125,9.515625 L28.25,9.515625 Z" fill="#F7BC04"></path>
            <path d="M19.390625,0 L19.390625,6.796875 C19.390625,7.59375 19.90625,9.515625 22.25,9.515625 L28.25,9.515625 L19.390625,0 Z" fill="#FFFFFF" opacity="0.5"></path>
            <path d="M10.8125,20.15625 L9.265625,20.15625 L9.265625,24.890625 C9.265625,25.078125 9.125,25.21875 8.890625,25.21875 C8.703125,25.21875 8.5625,25.078125 8.5625,24.890625 L8.5625,20.15625 L7.015625,20.15625 C6.875,20.15625 6.734375,20.0625 6.734375,19.875 C6.734375,19.6875 6.875,19.546875 7.015625,19.546875 L10.8125,19.546875 C10.953125,19.546875 11.09375,19.6875 11.09375,19.875 C11.09375,20.0625 10.953125,20.15625 10.8125,20.15625 L10.8125,20.15625 Z M16.296875,25.21875 C16.15625,25.21875 16.0625,25.21875 16.015625,25.125 L14.28125,22.78125 L12.5,25.125 C12.453125,25.21875 12.359375,25.21875 12.265625,25.21875 C12.078125,25.21875 11.9375,25.078125 11.9375,24.890625 C11.9375,24.84375 11.9375,24.75 11.984375,24.703125 L13.8125,22.3125 L12.125,20.015625 C12.078125,19.96875 12.078125,19.921875 12.078125,19.828125 C12.078125,19.6875 12.171875,19.5 12.40625,19.5 C12.5,19.5 12.59375,19.546875 12.6875,19.640625 L14.28125,21.796875 L15.875,19.640625 C15.96875,19.546875 16.0625,19.5 16.15625,19.5 C16.34375,19.5 16.484375,19.640625 16.484375,19.828125 C16.484375,19.921875 16.484375,19.96875 16.4375,20.015625 L14.75,22.265625 L16.578125,24.703125 C16.578125,24.75 16.625,24.84375 16.625,24.890625 C16.625,25.078125 16.484375,25.21875 16.296875,25.21875 L16.296875,25.21875 Z M21.546875,20.15625 L20,20.15625 L20,24.890625 C20,25.078125 19.859375,25.21875 19.625,25.21875 C19.4375,25.21875 19.296875,25.078125 19.296875,24.890625 L19.296875,20.15625 L17.75,20.15625 C17.609375,20.15625 17.46875,20.0625 17.46875,19.875 C17.46875,19.6875 17.609375,19.546875 17.75,19.546875 L21.546875,19.546875 C21.6875,19.546875 21.828125,19.6875 21.828125,19.875 C21.828125,20.0625 21.6875,20.15625 21.546875,20.15625 L21.546875,20.15625 Z" fill="#FFFFFF"></path>
        </g>
    </g>
</svg>