<?xml version="1.0" encoding="UTF-8"?>
<svg width="30px" height="30px" viewBox="0 0 30 30" version="1.1" xmlns="http://www.w3.org/2000/svg" xmlns:xlink="http://www.w3.org/1999/xlink">
    <!-- Generator: Sketch 50.2 (55047) - http://www.bohemiancoding.com/sketch -->
    <title>icon/文件格式/video</title>
    <desc>Created with Sketch.</desc>
    <defs></defs>
    <g id="icon/文件格式/video" stroke="none" stroke-width="1" fill="none" fill-rule="evenodd">
        <g id="Shape">
            <path d="M4.4375,1.66533454e-15 C3.125,1.66533454e-15 2.046875,1.078125 2.046875,2.390625 L2.046875,27.609375 C2.046875,28.921875 3.125,30 4.4375,30 L25.859375,30 C27.171875,30 28.25,28.921875 28.25,27.609375 L28.25,9.515625 L19.390625,0 L4.4375,0 L4.4375,1.66533454e-15 Z" fill="#8E4C9E"></path>
            <path d="M28.25,9.5625 L28.25,10.03125 L22.25,10.03125 C22.25,10.03125 19.296875,9.421875 19.34375,6.84375 C19.34375,6.84375 19.484375,9.5625 22.203125,9.5625 L28.25,9.5625 Z" fill="#713985"></path>
            <path d="M19.390625,0 L19.390625,6.84375 C19.390625,7.59375 19.90625,9.5625 22.25,9.5625 L28.25,9.5625 L19.390625,0 Z" fill="#FFFFFF" opacity="0.5"></path>
            <path d="M13.484375,21.328125 C13.484375,21.515625 13.4375,21.703125 13.296875,21.796875 C13.203125,21.890625 10.8125,23.859375 7.71875,25.125 C7.671875,25.171875 7.578125,25.171875 7.484375,25.171875 C7.390625,25.171875 7.296875,25.125 7.203125,25.078125 C7.015625,24.984375 6.921875,24.84375 6.875,24.609375 C6.875,24.5625 6.734375,23.015625 6.734375,21.328125 C6.734375,19.640625 6.875,18.140625 6.875,18.046875 C6.921875,17.859375 7.015625,17.71875 7.203125,17.578125 C7.296875,17.53125 7.390625,17.484375 7.484375,17.484375 C7.578125,17.484375 7.671875,17.53125 7.71875,17.578125 C10.8125,18.796875 13.203125,20.8125 13.296875,20.90625 C13.4375,21 13.484375,21.1875 13.484375,21.328125 Z" fill="#FFFFFF"></path>
        </g>
    </g>
</svg>