<?xml version="1.0" encoding="UTF-8"?>
<svg width="30px" height="30px" viewBox="0 0 30 30" version="1.1" xmlns="http://www.w3.org/2000/svg" xmlns:xlink="http://www.w3.org/1999/xlink">
    <!-- Generator: Sketch 50.2 (55047) - http://www.bohemiancoding.com/sketch -->
    <title>icon/文件格式/word</title>
    <desc>Created with Sketch.</desc>
    <defs></defs>
    <g id="icon/文件格式/word" stroke="none" stroke-width="1" fill="none" fill-rule="evenodd">
        <g id="Shape">
            <path d="M4.390625,1.66533454e-15 C3.078125,1.66533454e-15 2,1.03125 2,2.34375 L2,27.609375 C2,28.921875 3.078125,30 4.390625,30 L25.859375,30 C27.171875,30 28.25,28.921875 28.25,27.609375 L28.25,9.515625 L19.390625,0 L4.390625,0 L4.390625,1.66533454e-15 Z" fill="#14A9DA"></path>
            <path d="M28.25,9.5625 L28.25,10.03125 L22.25,10.03125 C22.25,10.03125 19.296875,9.421875 19.34375,6.84375 C19.34375,6.84375 19.484375,9.5625 22.203125,9.5625 L28.25,9.5625 Z" fill="#0F93D0"></path>
            <path d="M19.390625,0 L19.390625,6.84375 C19.390625,7.59375 19.90625,9.5625 22.25,9.5625 L28.25,9.5625 L19.390625,0 Z" fill="#FFFFFF" opacity="0.5"></path>
            <path d="M8.65625,25.265625 L7.25,25.265625 C6.96875,25.265625 6.734375,25.03125 6.734375,24.75 L6.734375,20.109375 C6.734375,19.828125 6.96875,19.640625 7.25,19.640625 L8.65625,19.640625 C10.4375,19.640625 11.5625,20.859375 11.5625,22.453125 C11.5625,24.046875 10.4375,25.265625 8.65625,25.265625 Z M8.65625,20.25 L7.4375,20.25 L7.4375,24.609375 L8.65625,24.609375 C10.0625,24.609375 10.859375,23.625 10.859375,22.453125 C10.859375,21.234375 10.0625,20.25 8.65625,20.25 L8.65625,20.25 Z M15.453125,25.359375 C13.765625,25.359375 12.640625,24.09375 12.640625,22.453125 C12.640625,20.8125 13.765625,19.546875 15.453125,19.546875 C17.09375,19.546875 18.21875,20.765625 18.21875,22.453125 C18.21875,24.09375 17.09375,25.359375 15.453125,25.359375 Z M15.453125,20.15625 C14.1875,20.15625 13.390625,21.140625 13.390625,22.453125 C13.390625,23.765625 14.1875,24.703125 15.453125,24.703125 C16.671875,24.703125 17.515625,23.765625 17.515625,22.453125 C17.515625,21.140625 16.671875,20.15625 15.453125,20.15625 L15.453125,20.15625 Z M24.078125,20.34375 C24.125,20.390625 24.171875,20.484375 24.171875,20.578125 C24.171875,20.765625 24.03125,20.90625 23.84375,20.90625 C23.75,20.90625 23.65625,20.859375 23.609375,20.8125 C23.28125,20.390625 22.71875,20.15625 22.203125,20.15625 C20.984375,20.15625 20.046875,21.09375 20.046875,22.453125 C20.046875,23.765625 20.984375,24.703125 22.203125,24.703125 C22.71875,24.703125 23.234375,24.515625 23.609375,24.09375 C23.65625,24 23.75,23.953125 23.84375,23.953125 C24.03125,23.953125 24.171875,24.140625 24.171875,24.328125 C24.171875,24.421875 24.125,24.46875 24.078125,24.5625 C23.65625,25.03125 23.046875,25.359375 22.203125,25.359375 C20.5625,25.359375 19.296875,24.1875 19.296875,22.453125 C19.296875,20.71875 20.5625,19.546875 22.203125,19.546875 C23.046875,19.546875 23.65625,19.875 24.078125,20.34375 Z" fill="#FFFFFF"></path>
        </g>
    </g>
</svg>