<?xml version="1.0" encoding="UTF-8"?>
<svg width="26px" height="32px" viewBox="0 0 26 32" version="1.1" xmlns="http://www.w3.org/2000/svg" xmlns:xlink="http://www.w3.org/1999/xlink">
    <!-- Generator: Sketch 50.2 (55047) - http://www.bohemiancoding.com/sketch -->
    <title>icon/文件格式/XLS</title>
    <desc>Created with Sketch.</desc>
    <defs></defs>
    <g id="icon/文件格式/XLS" stroke="none" stroke-width="1" fill="none" fill-rule="evenodd">
        <g id="Group-5">
            <path d="M0,0 L29.0038998,0 C30.6586002,0 32,1.33425951 32,2.99610022 L32,29.0038998 C32,30.6586002 30.6657405,32 29.0038998,32 L0,32 L0,0 Z" id="Rectangle-1205-Copy-4"></path>
        </g>
        <g id="xls" fill-rule="nonzero">
            <path d="M17.7057143,0 L1.12171429,0 C0.66,0 0.285714286,0.374285714 0.285714286,1.10057143 L0.285714286,31.4285714 C0.285714286,31.6257143 0.66,32 1.12171429,32 L24.0211429,32 C24.4828571,32 24.8571429,31.6257143 24.8571429,31.4285714 L24.8571429,7.416 C24.8571429,7.01828571 24.804,6.89028571 24.7102857,6.796 L18.0611429,0.146857143 C17.9668571,0.0531428571 17.8388571,0 17.7057143,0 Z" id="Shape" fill="#E9E9E0"></path>
            <polygon id="Shape" fill="#D9D7CA" points="18 0.0862857143 18 6.85714286 24.7708571 6.85714286"></polygon>
            <path d="M24.0211429,32 L1.12171429,32 C0.66,32 0.285714286,31.6257143 0.285714286,31.164 L0.285714286,22.2857143 L24.8571429,22.2857143 L24.8571429,31.164 C24.8571429,31.6257143 24.4828571,32 24.0211429,32 Z" id="Shape" fill="#91CDA0"></path>
            <g id="Group" transform="translate(5.142857, 24.000000)" fill="#FFFFFF">
                <polygon id="Shape" points="3.07371429 3.48857143 4.53485714 6.28571429 3.44914286 6.28571429 2.53485714 4.11371429 2.45657143 4.11371429 1.472 6.28571429 0.386285714 6.28571429 1.84742857 3.48857143 0.292571429 0.527428571 1.36285714 0.527428571 2.37828571 2.87142857 2.45657143 2.87142857 3.55828571 0.527428571 4.62857143 0.527428571"></polygon>
                <polygon id="Shape" points="6.87828571 0.528 6.87828571 5.57485714 9.52685714 5.57485714 9.52685714 6.28571429 5.92514286 6.28571429 5.92514286 0.528"></polygon>
                <path d="M13.7377143,4.70742857 C13.7377143,4.91542857 13.6948571,5.11771429 13.6085714,5.31314286 C13.5222857,5.50857143 13.4017143,5.68 13.2457143,5.82857143 C13.0897143,5.97714286 12.8965714,6.09542857 12.6674286,6.184 C12.4382857,6.27257143 12.1777143,6.31657143 11.8862857,6.31657143 C11.7611429,6.31657143 11.6325714,6.30971429 11.4994286,6.29714286 C11.3662857,6.28457143 11.2325714,6.26171429 11.0971429,6.23085714 C10.9617143,6.19942857 10.8325714,6.15657143 10.7102857,6.10171429 C10.588,6.04685714 10.4822857,5.98057143 10.3937143,5.90228571 L10.5577143,5.23028571 C10.6302857,5.272 10.7228571,5.31257143 10.8348571,5.35142857 C10.9468571,5.39028571 11.0622857,5.42685714 11.1822857,5.46057143 C11.3017143,5.49485714 11.4217143,5.52171429 11.5417143,5.54285714 C11.6611429,5.56342857 11.7731429,5.57428571 11.8777143,5.57428571 C12.1954286,5.57428571 12.4388571,5.5 12.608,5.35142857 C12.7771429,5.20285714 12.8617143,4.98285714 12.8617143,4.69142857 C12.8617143,4.51428571 12.8017143,4.36342857 12.6822857,4.23828571 C12.5622857,4.11314286 12.4125714,4 12.2331429,3.89828571 C12.0537143,3.79657143 11.8594286,3.69542857 11.6508571,3.59371429 C11.4422857,3.492 11.2468571,3.372 11.0651429,3.23428571 C10.8828571,3.09657143 10.732,2.93371429 10.612,2.74628571 C10.492,2.55885714 10.4325714,2.32457143 10.4325714,2.04342857 C10.4325714,1.78857143 10.4794286,1.56171429 10.5731429,1.364 C10.6668571,1.16628571 10.7931429,0.997714286 10.952,0.86 C11.1108571,0.722285714 11.296,0.616571429 11.5068571,0.543428571 C11.7177143,0.470285714 11.9405714,0.434285714 12.1748571,0.434285714 C12.4142857,0.434285714 12.6565714,0.456571429 12.9011429,0.500571429 C13.1457143,0.544571429 13.3434286,0.616571429 13.4948571,0.715428571 C13.4634286,0.782857143 13.4268571,0.857142857 13.3857143,0.938285714 C13.344,1.01942857 13.3045714,1.09428571 13.2685714,1.16457143 C13.232,1.23485714 13.2005714,1.29371429 13.1748571,1.34057143 C13.1485714,1.38742857 13.1331429,1.41371429 13.128,1.41885714 C13.0965714,1.40342857 13.0617143,1.38285714 13.0222857,1.35657143 C12.9828571,1.33028571 12.9268571,1.30457143 12.8542857,1.27828571 C12.7811429,1.252 12.6851429,1.23428571 12.5651429,1.22342857 C12.4451429,1.21257143 12.2914286,1.21542857 12.104,1.23142857 C11.9994286,1.24228571 11.9011429,1.27142857 11.8068571,1.32114286 C11.7125714,1.37085714 11.6297143,1.43142857 11.5565714,1.50457143 C11.4834286,1.57771429 11.4262857,1.65942857 11.3845714,1.75085714 C11.3428571,1.84171429 11.3222857,1.92971429 11.3222857,2.01257143 C11.3222857,2.22057143 11.3817143,2.38857143 11.5017143,2.51657143 C11.6211429,2.64457143 11.7697143,2.756 11.9468571,2.85257143 C12.124,2.94914286 12.3165714,3.04285714 12.5251429,3.13371429 C12.7331429,3.22457143 12.9274286,3.336 13.1074286,3.46571429 C13.2874286,3.59542857 13.4365714,3.75885714 13.5565714,3.95371429 C13.6777143,4.14914286 13.7377143,4.4 13.7377143,4.70742857 Z" id="Shape"></path>
            </g>
            <path d="M10,9.14285714 L10,6.85714286 L3.14285714,6.85714286 L3.14285714,9.14285714 L3.14285714,10.2857143 L3.14285714,11.4285714 L3.14285714,12.5714286 L3.14285714,13.7142857 L3.14285714,14.8571429 L3.14285714,16 L3.14285714,17.1428571 L3.14285714,19.4285714 L8.85714286,19.4285714 L10,19.4285714 L22,19.4285714 L22,17.1428571 L22,16 L22,14.8571429 L22,13.7142857 L22,12.5714286 L22,11.4285714 L22,9.14285714 L10,9.14285714 Z M4.28571429,8 L8.85714286,8 L8.85714286,9.14285714 L4.28571429,9.14285714 L4.28571429,8 Z M4.28571429,10.2857143 L8.85714286,10.2857143 L8.85714286,11.4285714 L4.28571429,11.4285714 L4.28571429,10.2857143 Z M4.28571429,12.5714286 L8.85714286,12.5714286 L8.85714286,13.7142857 L4.28571429,13.7142857 L4.28571429,12.5714286 Z M4.28571429,14.8571429 L8.85714286,14.8571429 L8.85714286,16 L4.28571429,16 L4.28571429,14.8571429 Z M8.85714286,18.2857143 L4.28571429,18.2857143 L4.28571429,17.1428571 L8.85714286,17.1428571 L8.85714286,18.2857143 Z M20.8571429,18.2857143 L10,18.2857143 L10,17.1428571 L20.8571429,17.1428571 L20.8571429,18.2857143 Z M20.8571429,16 L10,16 L10,14.8571429 L20.8571429,14.8571429 L20.8571429,16 Z M20.8571429,13.7142857 L10,13.7142857 L10,12.5714286 L20.8571429,12.5714286 L20.8571429,13.7142857 Z M10,11.4285714 L10,10.2857143 L20.8571429,10.2857143 L20.8571429,11.4285714 L10,11.4285714 Z" id="Shape" fill="#C8BDB8"></path>
        </g>
    </g>
</svg>