<?xml version="1.0" encoding="UTF-8"?>
<svg width="30px" height="30px" viewBox="0 0 30 30" version="1.1" xmlns="http://www.w3.org/2000/svg" xmlns:xlink="http://www.w3.org/1999/xlink">
    <!-- Generator: Sketch 50.2 (55047) - http://www.bohemiancoding.com/sketch -->
    <title>icon/文件格式/xml</title>
    <desc>Created with Sketch.</desc>
    <defs></defs>
    <g id="icon/文件格式/xml" stroke="none" stroke-width="1" fill="none" fill-rule="evenodd">
        <g id="Shape">
            <path d="M4.390625,1.66533454e-15 C3.078125,1.66533454e-15 2,1.03125 2,2.34375 L2,27.609375 C2,28.921875 3.078125,30 4.390625,30 L25.859375,30 C27.171875,30 28.25,28.921875 28.25,27.609375 L28.25,9.515625 L19.390625,0 L4.390625,0 L4.390625,1.66533454e-15 Z" fill="#FC7B24"></path>
            <path d="M28.25,9.5625 L28.25,10.03125 L22.25,10.03125 C22.25,10.03125 19.296875,9.421875 19.34375,6.84375 C19.34375,6.84375 19.484375,9.5625 22.203125,9.5625 L28.25,9.5625 Z" fill="#FB5C1B"></path>
            <path d="M19.390625,0 L19.390625,6.84375 C19.390625,7.59375 19.90625,9.5625 22.25,9.5625 L28.25,9.5625 L19.390625,0 Z" fill="#FFFFFF" opacity="0.5"></path>
            <path d="M11.09375,25.21875 C11,25.21875 10.90625,25.21875 10.8125,25.125 L9.078125,22.78125 L7.34375,25.125 C7.25,25.21875 7.15625,25.21875 7.0625,25.21875 C6.875,25.21875 6.734375,25.078125 6.734375,24.890625 C6.734375,24.84375 6.734375,24.75 6.78125,24.703125 L8.609375,22.3125 L6.921875,20.015625 C6.875,19.96875 6.875,19.921875 6.875,19.828125 C6.875,19.6875 7.015625,19.5 7.203125,19.5 C7.296875,19.5 7.390625,19.546875 7.484375,19.640625 L9.078125,21.796875 L10.671875,19.640625 C10.765625,19.546875 10.859375,19.5 10.953125,19.5 C11.140625,19.5 11.28125,19.640625 11.28125,19.828125 C11.28125,19.921875 11.28125,19.96875 11.234375,20.015625 L9.546875,22.265625 L11.375,24.703125 C11.421875,24.75 11.421875,24.84375 11.421875,24.890625 C11.421875,25.078125 11.28125,25.21875 11.09375,25.21875 Z M17.84375,25.21875 C17.65625,25.21875 17.515625,25.078125 17.515625,24.890625 L17.515625,20.53125 L15.640625,25.125 C15.59375,25.171875 15.546875,25.21875 15.453125,25.21875 C15.359375,25.21875 15.3125,25.171875 15.265625,25.125 L13.390625,20.53125 L13.390625,24.890625 C13.390625,25.078125 13.25,25.21875 13.0625,25.21875 C12.828125,25.21875 12.6875,25.078125 12.6875,24.890625 L12.6875,20.0625 C12.6875,19.78125 12.96875,19.5 13.296875,19.5 C13.53125,19.5 13.765625,19.640625 13.859375,19.875 L15.453125,23.8125 L17.046875,19.875 C17.140625,19.640625 17.375,19.5 17.609375,19.5 C17.9375,19.5 18.21875,19.78125 18.21875,20.0625 L18.21875,24.890625 C18.21875,25.078125 18.078125,25.21875 17.84375,25.21875 Z M22.8125,25.171875 L20.234375,25.171875 C19.953125,25.171875 19.71875,24.9375 19.71875,24.65625 L19.71875,19.828125 C19.71875,19.640625 19.90625,19.5 20.09375,19.5 C20.28125,19.5 20.421875,19.640625 20.421875,19.828125 L20.421875,24.5625 L22.8125,24.5625 C22.953125,24.5625 23.09375,24.703125 23.09375,24.84375 C23.09375,25.03125 22.953125,25.171875 22.8125,25.171875 L22.8125,25.171875 Z" fill="#FFFFFF"></path>
        </g>
    </g>
</svg>