<?xml version="1.0" encoding="UTF-8"?>
<svg width="27px" height="30px" viewBox="0 0 27 30" version="1.1" xmlns="http://www.w3.org/2000/svg" xmlns:xlink="http://www.w3.org/1999/xlink">
    <!-- Generator: Sketch 50.2 (55047) - http://www.bohemiancoding.com/sketch -->
    <title>icon/文件格式/zip</title>
    <desc>Created with Sketch.</desc>
    <defs></defs>
    <g id="icon/文件格式/zip" stroke="none" stroke-width="1" fill="none" fill-rule="evenodd">
        <g id="Shape">
            <path d="M2.390625,1.66533454e-15 C1.078125,1.66533454e-15 0,1.03125 0,2.34375 L0,27.609375 C0,28.921875 1.078125,30 2.390625,30 L23.859375,30 C25.171875,30 26.25,28.921875 26.25,27.609375 L26.25,9.515625 L17.390625,0 L2.390625,0 L2.390625,1.66533454e-15 Z" fill="#8199AF"></path>
            <path d="M26.25,9.5625 L26.25,10.03125 L20.25,10.03125 C20.25,10.03125 17.296875,9.421875 17.34375,6.84375 C17.34375,6.84375 17.484375,9.5625 20.203125,9.5625 L26.25,9.5625 Z" fill="#617F9B"></path>
            <path d="M17.390625,0 L17.390625,6.84375 C17.390625,7.59375 17.90625,9.5625 20.25,9.5625 L26.25,9.5625 L17.390625,0 Z" fill="#FFFFFF" opacity="0.5"></path>
            <path d="M8.625,25.265625 L5.109375,25.265625 C4.921875,25.265625 4.734375,25.125 4.734375,24.890625 C4.734375,24.796875 4.78125,24.703125 4.828125,24.65625 L7.921875,20.25 L5.015625,20.25 C4.875,20.25 4.734375,20.109375 4.734375,19.921875 C4.734375,19.78125 4.875,19.640625 5.015625,19.640625 L8.53125,19.640625 C8.71875,19.640625 8.859375,19.78125 8.859375,20.015625 C8.859375,20.109375 8.859375,20.203125 8.8125,20.25 L5.671875,24.65625 L8.625,24.65625 C8.8125,24.65625 8.953125,24.796875 8.953125,24.9375 C8.953125,25.125 8.8125,25.265625 8.625,25.265625 Z M10.5,25.3125 C10.3125,25.3125 10.171875,25.171875 10.171875,24.984375 L10.171875,19.921875 C10.171875,19.734375 10.3125,19.59375 10.546875,19.59375 C10.734375,19.59375 10.875,19.734375 10.875,19.921875 L10.875,24.984375 C10.875,25.171875 10.734375,25.3125 10.5,25.3125 Z M14.671875,23.015625 L13.125,23.015625 L13.125,24.984375 C13.125,25.171875 12.9375,25.3125 12.75,25.3125 C12.5625,25.3125 12.421875,25.171875 12.421875,24.984375 L12.421875,20.15625 C12.421875,19.875 12.609375,19.640625 12.890625,19.640625 L14.671875,19.640625 C15.796875,19.640625 16.453125,20.4375 16.453125,21.328125 C16.453125,22.21875 15.796875,23.015625 14.671875,23.015625 L14.671875,23.015625 Z M14.578125,20.25 L13.125,20.25 L13.125,22.40625 L14.578125,22.40625 C15.234375,22.40625 15.703125,21.984375 15.703125,21.328125 C15.703125,20.71875 15.234375,20.25 14.578125,20.25 L14.578125,20.25 Z" fill="#FFFFFF"></path>
        </g>
    </g>
</svg>