<?xml version="1.0" encoding="UTF-8"?>
<svg width="67px" height="50px" viewBox="0 0 67 50" version="1.1" xmlns="http://www.w3.org/2000/svg" xmlns:xlink="http://www.w3.org/1999/xlink">
    <!-- Generator: Sketch 50.2 (55047) - http://www.bohemiancoding.com/sketch -->
    <title>图标上传中</title>
    <desc>Created with Sketch.</desc>
    <defs></defs>
    <g id="Symbols" stroke="none" stroke-width="1" fill="none" fill-rule="evenodd">
        <g id="表单/上传下载/图标/上传中" transform="translate(-16.000000, -14.000000)" fill="#D8D8D8">
            <path d="M53,64 L53,52.8232422 L61.9223633,52.8232422 L50.0000003,34.7466281 L38.0776367,52.8232422 L47,52.8232422 L47,64 L32,64 L32,63.9925689 C23.1186089,63.7282373 16,56.4454388 16,47.5 C16,38.3873016 23.3873016,31 32.5,31 C32.6698318,31 32.8390643,31.0025658 33.0076609,31.0076609 C33.0025658,30.8390643 33,30.6698318 33,30.5 C33,21.3873016 40.3873016,14 49.5,14 C58.6126984,14 66,21.3873016 66,30.5 C66,30.6698318 65.9974342,30.8390643 65.9923391,31.0076609 C66.1609357,31.0025658 66.3301682,31 66.5,31 C75.6126984,31 83,38.3873016 83,47.5 C83,56.4454388 75.8813911,63.7282373 67,63.9925689 L67,64 L53,64 Z" id="图标上传中"></path>
        </g>
    </g>
</svg>